<?xml version="1.0" encoding="utf-8"?>
<!DOCTYPE svg PUBLIC "-//W3C//DTD SVG 1.1//EN" "http://www.w3.org/Graphics/SVG/1.1/DTD/svg11.dtd">
<svg class="sigma-svg" xmlns="http://www.w3.org/2000/svg" xmlns:xlink="http://www.w3.org/1999/xlink" version="1.1" width="1000px" height="1000px" x="0px" y="0px"><style type="text/css">.sigma-node{fill: rgb(34,0,255)}.c-0{fill: rgb(184,0,9)}.c-1{fill: rgb(70,0,117)}.sigma-edge{stroke: #bfbfbe}.c-2{stroke: #fd9a9f}.c-3{stroke: #7fc8a3}</style><g id="sigma-group-edges" class="sigma-group"><line class="sigma-edge" stroke-width="1" x1="627.2036965961527" y1="568.9285221183179" x2="598.4652267206588" y2="613.8305402196986"></line><line class="sigma-edge" stroke-width="1" x1="932.9208290480099" y1="992.1259842519685" x2="935.3834716664517" y2="987.7102144347114"></line><line class="sigma-edge" stroke-width="1" x1="788.5815097156275" y1="606.3700171634523" x2="968.9309753772923" y2="604.5927037278744"></line><line class="sigma-edge" stroke-width="1" x1="934.7812782790356" y1="982.543966481575" x2="935.3834716664517" y2="987.7102144347114"></line><line class="sigma-edge" stroke-width="1" x1="619.7083354650078" y1="388.26576529349916" x2="641.522564564316" y2="416.21962776175195"></line><line class="sigma-edge" stroke-width="1" x1="646.8614709617207" y1="444.8797100633384" x2="641.522564564316" y2="416.21962776175195"></line><line class="sigma-edge" stroke-width="1" x1="612.5299390809378" y1="422.36631105834505" x2="641.522564564316" y2="416.21962776175195"></line><line class="sigma-edge" stroke-width="1" x1="584.5471299908376" y1="398.96667136482176" x2="641.522564564316" y2="416.21962776175195"></line><line class="sigma-edge" stroke-width="1" x1="614.1283901359167" y1="458.1908956703766" x2="641.522564564316" y2="416.21962776175195"></line><line class="sigma-edge" stroke-width="1" x1="576.2719782678829" y1="427.5697064140312" x2="641.522564564316" y2="416.21962776175195"></line><line class="sigma-edge" stroke-width="1" x1="545.2999846117502" y1="444.67376833902597" x2="641.522564564316" y2="416.21962776175195"></line><line class="sigma-edge" stroke-width="1" x1="577.3527207440761" y1="461.56804728183295" x2="641.522564564316" y2="416.21962776175195"></line><line class="sigma-edge" stroke-width="1" x1="971.8523434501183" y1="612.3418165251032" x2="968.9309753772923" y2="604.5927037278744"></line><line class="sigma-edge" stroke-width="1" x1="978.1157583054829" y1="604.0588146124427" x2="968.9309753772923" y2="604.5927037278744"></line><line class="sigma-edge c-2" stroke-width="1" x1="133.87248719957756" y1="821.7657706678458" x2="59.61511912114793" y2="832.1328378949979"></line><line class="sigma-edge c-2" stroke-width="1" x1="90.56824945735633" y1="832.5305605159786" x2="59.61511912114793" y2="832.1328378949979"></line><line class="sigma-edge c-2" stroke-width="1" x1="91.29769213344116" y1="815.3917824607797" x2="59.61511912114793" y2="832.1328378949979"></line><line class="sigma-edge c-2" stroke-width="1" x1="630.1868448998094" y1="724.0970943129417" x2="587.4376003267049" y2="836.8463966561259"></line><line class="sigma-edge c-2" stroke-width="1" x1="463.68081437609" y1="750.517281223604" x2="587.4376003267049" y2="836.8463966561259"></line><line class="sigma-edge c-2" stroke-width="1" x1="539.7088051276819" y1="888.1116108591131" x2="587.4376003267049" y2="836.8463966561259"></line><line class="sigma-edge c-2" stroke-width="1" x1="608.6735905495149" y1="750.4801947934013" x2="587.4376003267049" y2="836.8463966561259"></line><line class="sigma-edge c-2" stroke-width="1" x1="622.5750265854555" y1="784.8823783815369" x2="587.4376003267049" y2="836.8463966561259"></line><line class="sigma-edge c-2" stroke-width="1" x1="498.8072074980708" y1="755.9302080505456" x2="587.4376003267049" y2="836.8463966561259"></line><line class="sigma-edge c-2" stroke-width="1" x1="568.993632963616" y1="889.1280198874354" x2="587.4376003267049" y2="836.8463966561259"></line><line class="sigma-edge c-2" stroke-width="1" x1="543.2120170670361" y1="707.4160661545714" x2="587.4376003267049" y2="836.8463966561259"></line><line class="sigma-edge c-2" stroke-width="1" x1="600.3893691899096" y1="876.6816431888758" x2="587.4376003267049" y2="836.8463966561259"></line><line class="sigma-edge c-2" stroke-width="1" x1="586.6893019522391" y1="712.3522654416093" x2="587.4376003267049" y2="836.8463966561259"></line><line class="sigma-edge c-2" stroke-width="1" x1="490.6248347283556" y1="807.6579584796189" x2="587.4376003267049" y2="836.8463966561259"></line><line class="sigma-edge c-2" stroke-width="1" x1="499.87586030103995" y1="718.7620444164994" x2="587.4376003267049" y2="836.8463966561259"></line><line class="sigma-edge c-2" stroke-width="1" x1="565.7828748877502" y1="869.1316203484394" x2="587.4376003267049" y2="836.8463966561259"></line><line class="sigma-edge c-2" stroke-width="1" x1="553.2876593390594" y1="739.9616570126434" x2="587.4376003267049" y2="836.8463966561259"></line><line class="sigma-edge c-2" stroke-width="1" x1="492.04001624526245" y1="833.4705711932218" x2="587.4376003267049" y2="836.8463966561259"></line><line class="sigma-edge c-2" stroke-width="1" x1="580.2316368201434" y1="770.9490233218214" x2="587.4376003267049" y2="836.8463966561259"></line><line class="sigma-edge c-2" stroke-width="1" x1="527.5607775564333" y1="769.5528022995172" x2="587.4376003267049" y2="836.8463966561259"></line><line class="sigma-edge c-2" stroke-width="1" x1="552.6804433545403" y1="790.6356071214555" x2="587.4376003267049" y2="836.8463966561259"></line><line class="sigma-edge c-2" stroke-width="1" x1="608.6735905495149" y1="750.4801947934013" x2="598.4652267206588" y2="613.8305402196986"></line><line class="sigma-edge c-2" stroke-width="1" x1="463.68081437609" y1="750.517281223604" x2="598.4652267206588" y2="613.8305402196986"></line><line class="sigma-edge c-2" stroke-width="1" x1="630.1868448998094" y1="724.0970943129417" x2="598.4652267206588" y2="613.8305402196986"></line><line class="sigma-edge c-2" stroke-width="1" x1="586.6893019522391" y1="712.3522654416093" x2="598.4652267206588" y2="613.8305402196986"></line><line class="sigma-edge c-2" stroke-width="1" x1="490.6248347283556" y1="807.6579584796189" x2="598.4652267206588" y2="613.8305402196986"></line><line class="sigma-edge c-2" stroke-width="1" x1="539.7088051276819" y1="888.1116108591131" x2="598.4652267206588" y2="613.8305402196986"></line><line class="sigma-edge c-2" stroke-width="1" x1="568.993632963616" y1="889.1280198874354" x2="598.4652267206588" y2="613.8305402196986"></line><line class="sigma-edge c-2" stroke-width="1" x1="543.2120170670361" y1="707.4160661545714" x2="598.4652267206588" y2="613.8305402196986"></line><line class="sigma-edge c-2" stroke-width="1" x1="580.2316368201434" y1="770.9490233218214" x2="598.4652267206588" y2="613.8305402196986"></line><line class="sigma-edge c-2" stroke-width="1" x1="600.3893691899096" y1="876.6816431888758" x2="598.4652267206588" y2="613.8305402196986"></line><line class="sigma-edge c-2" stroke-width="1" x1="565.7828748877502" y1="869.1316203484394" x2="598.4652267206588" y2="613.8305402196986"></line><line class="sigma-edge c-2" stroke-width="1" x1="622.5750265854555" y1="784.8823783815369" x2="598.4652267206588" y2="613.8305402196986"></line><line class="sigma-edge c-2" stroke-width="1" x1="499.87586030103995" y1="718.7620444164994" x2="598.4652267206588" y2="613.8305402196986"></line><line class="sigma-edge c-2" stroke-width="1" x1="498.8072074980708" y1="755.9302080505456" x2="598.4652267206588" y2="613.8305402196986"></line><line class="sigma-edge c-2" stroke-width="1" x1="492.04001624526245" y1="833.4705711932218" x2="598.4652267206588" y2="613.8305402196986"></line><line class="sigma-edge c-2" stroke-width="1" x1="527.5607775564333" y1="769.5528022995172" x2="598.4652267206588" y2="613.8305402196986"></line><line class="sigma-edge c-2" stroke-width="1" x1="552.6804433545403" y1="790.6356071214555" x2="598.4652267206588" y2="613.8305402196986"></line><line class="sigma-edge c-2" stroke-width="1" x1="553.2876593390594" y1="739.9616570126434" x2="598.4652267206588" y2="613.8305402196986"></line><line class="sigma-edge c-2" stroke-width="1" x1="627.2036965961527" y1="568.9285221183179" x2="598.4652267206588" y2="613.8305402196986"></line><line class="sigma-edge c-2" stroke-width="1" x1="495.1487542465118" y1="635.7670722260066" x2="471.76889293446766" y2="636.2748956629976"></line><line class="sigma-edge c-2" stroke-width="1" x1="436.806346323541" y1="640.5853967227623" x2="471.76889293446766" y2="636.2748956629976"></line><line class="sigma-edge c-2" stroke-width="1" x1="608.6735905495149" y1="750.4801947934013" x2="532.7382329891449" y2="845.1300387784324"></line><line class="sigma-edge c-2" stroke-width="1" x1="630.1868448998094" y1="724.0970943129417" x2="532.7382329891449" y2="845.1300387784324"></line><line class="sigma-edge c-2" stroke-width="1" x1="568.993632963616" y1="889.1280198874354" x2="532.7382329891449" y2="845.1300387784324"></line><line class="sigma-edge c-2" stroke-width="1" x1="463.68081437609" y1="750.517281223604" x2="532.7382329891449" y2="845.1300387784324"></line><line class="sigma-edge c-2" stroke-width="1" x1="580.2316368201434" y1="770.9490233218214" x2="532.7382329891449" y2="845.1300387784324"></line><line class="sigma-edge c-2" stroke-width="1" x1="600.3893691899096" y1="876.6816431888758" x2="532.7382329891449" y2="845.1300387784324"></line><line class="sigma-edge c-2" stroke-width="1" x1="539.7088051276819" y1="888.1116108591131" x2="532.7382329891449" y2="845.1300387784324"></line><line class="sigma-edge c-2" stroke-width="1" x1="622.5750265854555" y1="784.8823783815369" x2="532.7382329891449" y2="845.1300387784324"></line><line class="sigma-edge c-2" stroke-width="1" x1="498.8072074980708" y1="755.9302080505456" x2="532.7382329891449" y2="845.1300387784324"></line><line class="sigma-edge c-2" stroke-width="1" x1="499.87586030103995" y1="718.7620444164994" x2="532.7382329891449" y2="845.1300387784324"></line><line class="sigma-edge c-2" stroke-width="1" x1="565.7828748877502" y1="869.1316203484394" x2="532.7382329891449" y2="845.1300387784324"></line><line class="sigma-edge c-2" stroke-width="1" x1="543.2120170670361" y1="707.4160661545714" x2="532.7382329891449" y2="845.1300387784324"></line><line class="sigma-edge c-2" stroke-width="1" x1="553.2876593390594" y1="739.9616570126434" x2="532.7382329891449" y2="845.1300387784324"></line><line class="sigma-edge c-2" stroke-width="1" x1="492.04001624526245" y1="833.4705711932218" x2="532.7382329891449" y2="845.1300387784324"></line><line class="sigma-edge c-2" stroke-width="1" x1="490.6248347283556" y1="807.6579584796189" x2="532.7382329891449" y2="845.1300387784324"></line><line class="sigma-edge c-2" stroke-width="1" x1="586.6893019522391" y1="712.3522654416093" x2="532.7382329891449" y2="845.1300387784324"></line><line class="sigma-edge c-2" stroke-width="1" x1="527.5607775564333" y1="769.5528022995172" x2="532.7382329891449" y2="845.1300387784324"></line><line class="sigma-edge c-2" stroke-width="1" x1="552.6804433545403" y1="790.6356071214555" x2="532.7382329891449" y2="845.1300387784324"></line><line class="sigma-edge c-2" stroke-width="1" x1="114.98249187341531" y1="355.3467035655573" x2="151.95252586513794" y2="345.7347178865002"></line><line class="sigma-edge c-2" stroke-width="1" x1="108.96726495744986" y1="344.2153327227917" x2="151.95252586513794" y2="345.7347178865002"></line><line class="sigma-edge c-2" stroke-width="1" x1="426.8896513392026" y1="566.1067218885183" x2="598.4652267206588" y2="613.8305402196986"></line><line class="sigma-edge c-2" stroke-width="1" x1="487.22999923081676" y1="563.6907135887781" x2="598.4652267206588" y2="613.8305402196986"></line><line class="sigma-edge c-2" stroke-width="1" x1="40.345662392000406" y1="823.8121550717492" x2="59.61511912114793" y2="832.1328378949979"></line><line class="sigma-edge c-2" stroke-width="1" x1="52.43797267019596" y1="812.4636769435847" x2="59.61511912114793" y2="832.1328378949979"></line><line class="sigma-edge c-2" stroke-width="1" x1="64.6902134151756" y1="799.5942740999442" x2="59.61511912114793" y2="832.1328378949979"></line><line class="sigma-edge c-2" stroke-width="1" x1="79.7291038317768" y1="802.4870156557457" x2="59.61511912114793" y2="832.1328378949979"></line><line class="sigma-edge c-2" stroke-width="1" x1="43.38492049819541" y1="839.5788114248865" x2="59.61511912114793" y2="832.1328378949979"></line><line class="sigma-edge c-2" stroke-width="1" x1="74.17619973868204" y1="846.4874661448116" x2="59.61511912114793" y2="832.1328378949979"></line><line class="sigma-edge c-2" stroke-width="1" x1="74.38393252569432" y1="820.9055423069528" x2="59.61511912114793" y2="832.1328378949979"></line><line class="sigma-edge c-2" stroke-width="1" x1="58.942289269466016" y1="851.0493561922052" x2="59.61511912114793" y2="832.1328378949979"></line><line class="sigma-edge c-3" stroke-width="1" x1="441.1920224766685" y1="567.202288266632" x2="598.4652267206588" y2="613.8305402196986"></line><line class="sigma-edge c-3" stroke-width="1" x1="243.78486817084905" y1="288.4461979315397" x2="266.361480256833" y2="305.2189894724911"></line><line class="sigma-edge c-3" stroke-width="1" x1="310.3894292744995" y1="66.72845801072378" x2="302.0176058950118" y2="60.481658119979215"></line><line class="sigma-edge c-3" stroke-width="1" x1="576.2719782678829" y1="427.5697064140312" x2="471.76889293446766" y2="636.2748956629976"></line><line class="sigma-edge c-3" stroke-width="1" x1="619.7083354650078" y1="388.26576529349916" x2="471.76889293446766" y2="636.2748956629976"></line><line class="sigma-edge c-3" stroke-width="1" x1="646.8614709617207" y1="444.8797100633384" x2="471.76889293446766" y2="636.2748956629976"></line><line class="sigma-edge c-3" stroke-width="1" x1="545.2999846117502" y1="444.67376833902597" x2="471.76889293446766" y2="636.2748956629976"></line><line class="sigma-edge c-3" stroke-width="1" x1="612.5299390809378" y1="422.36631105834505" x2="471.76889293446766" y2="636.2748956629976"></line><line class="sigma-edge c-3" stroke-width="1" x1="614.1283901359167" y1="458.1908956703766" x2="471.76889293446766" y2="636.2748956629976"></line><line class="sigma-edge c-3" stroke-width="1" x1="577.3527207440761" y1="461.56804728183295" x2="471.76889293446766" y2="636.2748956629976"></line><line class="sigma-edge c-3" stroke-width="1" x1="584.5471299908376" y1="398.96667136482176" x2="471.76889293446766" y2="636.2748956629976"></line><line class="sigma-edge c-3" stroke-width="1" x1="21.884241694517073" y1="638.1057047117263" x2="22.349826537964532" y2="641.3406840525292"></line><line class="sigma-edge c-3" stroke-width="1" x1="418.1884134214902" y1="354.13853650519684" x2="471.76889293446766" y2="636.2748956629976"></line><line class="sigma-edge c-3" stroke-width="1" x1="515.7758136375368" y1="407.0941937920461" x2="471.76889293446766" y2="636.2748956629976"></line><line class="sigma-edge c-3" stroke-width="1" x1="411.776923410106" y1="408.4492432368833" x2="471.76889293446766" y2="636.2748956629976"></line><line class="sigma-edge c-3" stroke-width="1" x1="369.81044183073885" y1="366.66103717927297" x2="471.76889293446766" y2="636.2748956629976"></line><line class="sigma-edge c-3" stroke-width="1" x1="409.39336192602127" y1="317.15333564210084" x2="471.76889293446766" y2="636.2748956629976"></line><line class="sigma-edge c-3" stroke-width="1" x1="370.16564386107007" y1="418.9377521366305" x2="471.76889293446766" y2="636.2748956629976"></line><line class="sigma-edge c-3" stroke-width="1" x1="614.1283901359167" y1="458.1908956703766" x2="562.2424240873254" y2="349.9792468665622"></line><line class="sigma-edge c-3" stroke-width="1" x1="646.8614709617207" y1="444.8797100633384" x2="562.2424240873254" y2="349.9792468665622"></line><line class="sigma-edge c-3" stroke-width="1" x1="545.2999846117502" y1="444.67376833902597" x2="562.2424240873254" y2="349.9792468665622"></line><line class="sigma-edge c-3" stroke-width="1" x1="619.7083354650078" y1="388.26576529349916" x2="562.2424240873254" y2="349.9792468665622"></line><line class="sigma-edge c-3" stroke-width="1" x1="584.5471299908376" y1="398.96667136482176" x2="562.2424240873254" y2="349.9792468665622"></line><line class="sigma-edge c-3" stroke-width="1" x1="612.5299390809378" y1="422.36631105834505" x2="562.2424240873254" y2="349.9792468665622"></line><line class="sigma-edge c-3" stroke-width="1" x1="576.2719782678829" y1="427.5697064140312" x2="562.2424240873254" y2="349.9792468665622"></line><line class="sigma-edge c-3" stroke-width="1" x1="577.3527207440761" y1="461.56804728183295" x2="562.2424240873254" y2="349.9792468665622"></line><line class="sigma-edge c-3" stroke-width="1" x1="556.1069749457095" y1="286.47256878096834" x2="562.2424240873254" y2="349.9792468665622"></line><line class="sigma-edge c-3" stroke-width="1" x1="971.6079662824209" y1="596.3722099034396" x2="968.9309753772923" y2="604.5927037278744"></line><line class="sigma-edge c-3" stroke-width="1" x1="544.9104703930154" y1="530.4994360531637" x2="598.4652267206588" y2="613.8305402196986"></line><line class="sigma-edge c-3" stroke-width="1" x1="187.6406772286992" y1="439.24359395936165" x2="598.4652267206588" y2="613.8305402196986"></line><line class="sigma-edge c-3" stroke-width="1" x1="586.6893019522391" y1="712.3522654416093" x2="598.4652267206588" y2="613.8305402196986"></line><line class="sigma-edge c-3" stroke-width="1" x1="622.5750265854555" y1="784.8823783815369" x2="598.4652267206588" y2="613.8305402196986"></line><line class="sigma-edge c-3" stroke-width="1" x1="552.6804433545403" y1="790.6356071214555" x2="598.4652267206588" y2="613.8305402196986"></line><line class="sigma-edge c-3" stroke-width="1" x1="464.4290489201297" y1="595.6735620734776" x2="598.4652267206588" y2="613.8305402196986"></line><line class="sigma-edge c-3" stroke-width="1" x1="444.8532137676953" y1="601.7523488506584" x2="598.4652267206588" y2="613.8305402196986"></line><line class="sigma-edge c-3" stroke-width="1" x1="499.87586030103995" y1="718.7620444164994" x2="598.4652267206588" y2="613.8305402196986"></line><line class="sigma-edge c-3" stroke-width="1" x1="543.2120170670361" y1="707.4160661545714" x2="598.4652267206588" y2="613.8305402196986"></line><line class="sigma-edge c-3" stroke-width="1" x1="498.8072074980708" y1="755.9302080505456" x2="598.4652267206588" y2="613.8305402196986"></line><line class="sigma-edge c-3" stroke-width="1" x1="608.6735905495149" y1="750.4801947934013" x2="598.4652267206588" y2="613.8305402196986"></line><line class="sigma-edge c-3" stroke-width="1" x1="527.5607775564333" y1="769.5528022995172" x2="598.4652267206588" y2="613.8305402196986"></line><line class="sigma-edge c-3" stroke-width="1" x1="630.1868448998094" y1="724.0970943129417" x2="598.4652267206588" y2="613.8305402196986"></line><line class="sigma-edge c-3" stroke-width="1" x1="553.2876593390594" y1="739.9616570126434" x2="598.4652267206588" y2="613.8305402196986"></line><line class="sigma-edge c-3" stroke-width="1" x1="463.68081437609" y1="750.517281223604" x2="598.4652267206588" y2="613.8305402196986"></line><line class="sigma-edge c-3" stroke-width="1" x1="580.2316368201434" y1="770.9490233218214" x2="598.4652267206588" y2="613.8305402196986"></line><line class="sigma-edge c-3" stroke-width="1" x1="556.1069749457095" y1="286.47256878096834" x2="556.9295681252747" y2="254.4209453939794"></line><line class="sigma-edge c-3" stroke-width="1" x1="576.2719782678829" y1="427.5697064140312" x2="515.9221510816602" y2="375.5185967629677"></line><line class="sigma-edge c-3" stroke-width="1" x1="614.1283901359167" y1="458.1908956703766" x2="515.9221510816602" y2="375.5185967629677"></line><line class="sigma-edge c-3" stroke-width="1" x1="577.3527207440761" y1="461.56804728183295" x2="515.9221510816602" y2="375.5185967629677"></line><line class="sigma-edge c-3" stroke-width="1" x1="584.5471299908376" y1="398.96667136482176" x2="515.9221510816602" y2="375.5185967629677"></line><line class="sigma-edge c-3" stroke-width="1" x1="612.5299390809378" y1="422.36631105834505" x2="515.9221510816602" y2="375.5185967629677"></line><line class="sigma-edge c-3" stroke-width="1" x1="545.2999846117502" y1="444.67376833902597" x2="515.9221510816602" y2="375.5185967629677"></line><line class="sigma-edge c-3" stroke-width="1" x1="646.8614709617207" y1="444.8797100633384" x2="515.9221510816602" y2="375.5185967629677"></line><line class="sigma-edge c-3" stroke-width="1" x1="619.7083354650078" y1="388.26576529349916" x2="515.9221510816602" y2="375.5185967629677"></line><line class="sigma-edge c-3" stroke-width="1" x1="698.5850295419217" y1="310.1345191338181" x2="598.4652267206588" y2="613.8305402196986"></line><line class="sigma-edge c-3" stroke-width="1" x1="556.1069749457095" y1="286.47256878096834" x2="598.4652267206588" y2="613.8305402196986"></line><line class="sigma-edge c-3" stroke-width="1" x1="670.626053018045" y1="271.86278650108443" x2="598.4652267206588" y2="613.8305402196986"></line><line class="sigma-edge c-3" stroke-width="1" x1="671.5997204309592" y1="317.4365979242441" x2="598.4652267206588" y2="613.8305402196986"></line><line class="sigma-edge c-3" stroke-width="1" x1="418.1884134214902" y1="354.13853650519684" x2="515.9221510816602" y2="375.5185967629677"></line><line class="sigma-edge c-3" stroke-width="1" x1="370.16564386107007" y1="418.9377521366305" x2="515.9221510816602" y2="375.5185967629677"></line><line class="sigma-edge c-3" stroke-width="1" x1="515.7758136375368" y1="407.0941937920461" x2="515.9221510816602" y2="375.5185967629677"></line><line class="sigma-edge c-3" stroke-width="1" x1="409.39336192602127" y1="317.15333564210084" x2="515.9221510816602" y2="375.5185967629677"></line><line class="sigma-edge c-3" stroke-width="1" x1="411.776923410106" y1="408.4492432368833" x2="515.9221510816602" y2="375.5185967629677"></line><line class="sigma-edge c-3" stroke-width="1" x1="369.81044183073885" y1="366.66103717927297" x2="515.9221510816602" y2="375.5185967629677"></line><line class="sigma-edge c-3" stroke-width="1" x1="511.14408357716303" y1="560.7593022271317" x2="598.4652267206588" y2="613.8305402196986"></line><line class="sigma-edge c-3" stroke-width="1" x1="612.5299390809378" y1="422.36631105834505" x2="598.4652267206588" y2="613.8305402196986"></line><line class="sigma-edge c-3" stroke-width="1" x1="576.2719782678829" y1="427.5697064140312" x2="598.4652267206588" y2="613.8305402196986"></line><line class="sigma-edge c-3" stroke-width="1" x1="545.2999846117502" y1="444.67376833902597" x2="598.4652267206588" y2="613.8305402196986"></line><line class="sigma-edge c-3" stroke-width="1" x1="619.7083354650078" y1="388.26576529349916" x2="598.4652267206588" y2="613.8305402196986"></line><line class="sigma-edge c-3" stroke-width="1" x1="614.1283901359167" y1="458.1908956703766" x2="598.4652267206588" y2="613.8305402196986"></line><line class="sigma-edge c-3" stroke-width="1" x1="584.5471299908376" y1="398.96667136482176" x2="598.4652267206588" y2="613.8305402196986"></line><line class="sigma-edge c-3" stroke-width="1" x1="646.8614709617207" y1="444.8797100633384" x2="598.4652267206588" y2="613.8305402196986"></line><line class="sigma-edge c-3" stroke-width="1" x1="577.3527207440761" y1="461.56804728183295" x2="598.4652267206588" y2="613.8305402196986"></line><line class="sigma-edge c-3" stroke-width="1" x1="442.6639711542323" y1="50.316836168588736" x2="440.112266990346" y2="48.056164450345875"></line><line class="sigma-edge c-3" stroke-width="1" x1="205.0125830535315" y1="367.60810540570816" x2="598.4652267206588" y2="613.8305402196986"></line><line class="sigma-edge c-3" stroke-width="1" x1="209.46514968234192" y1="394.331873633228" x2="598.4652267206588" y2="613.8305402196986"></line><line class="sigma-edge c-3" stroke-width="1" x1="219.43205539462417" y1="343.96266331587094" x2="598.4652267206588" y2="613.8305402196986"></line><line class="sigma-edge c-3" stroke-width="1" x1="411.776923410106" y1="408.4492432368833" x2="598.4652267206588" y2="613.8305402196986"></line><line class="sigma-edge c-3" stroke-width="1" x1="213.6330973942832" y1="318.3288672536064" x2="598.4652267206588" y2="613.8305402196986"></line><line class="sigma-edge c-3" stroke-width="1" x1="369.81044183073885" y1="366.66103717927297" x2="598.4652267206588" y2="613.8305402196986"></line><line class="sigma-edge c-3" stroke-width="1" x1="233.6228357043443" y1="411.9956845704234" x2="598.4652267206588" y2="613.8305402196986"></line><line class="sigma-edge c-3" stroke-width="1" x1="418.1884134214902" y1="354.13853650519684" x2="598.4652267206588" y2="613.8305402196986"></line><line class="sigma-edge c-3" stroke-width="1" x1="409.39336192602127" y1="317.15333564210084" x2="598.4652267206588" y2="613.8305402196986"></line><line class="sigma-edge c-3" stroke-width="1" x1="236.11515661280038" y1="366.7379537953035" x2="598.4652267206588" y2="613.8305402196986"></line><line class="sigma-edge c-3" stroke-width="1" x1="370.16564386107007" y1="418.9377521366305" x2="598.4652267206588" y2="613.8305402196986"></line><line class="sigma-edge c-3" stroke-width="1" x1="258.2272508714134" y1="397.30942772402636" x2="598.4652267206588" y2="613.8305402196986"></line><line class="sigma-edge c-3" stroke-width="1" x1="261.2093626451672" y1="362.1686860938951" x2="598.4652267206588" y2="613.8305402196986"></line><line class="sigma-edge c-3" stroke-width="1" x1="539.9402066177345" y1="363.4868167824846" x2="598.4652267206588" y2="613.8305402196986"></line><line class="sigma-edge c-3" stroke-width="1" x1="495.1487542465118" y1="635.7670722260066" x2="471.76889293446766" y2="636.2748956629976"></line><line class="sigma-edge c-3" stroke-width="1" x1="436.806346323541" y1="640.5853967227623" x2="471.76889293446766" y2="636.2748956629976"></line><line class="sigma-edge c-3" stroke-width="1" x1="556.1069749457095" y1="286.47256878096834" x2="515.9221510816602" y2="375.5185967629677"></line><line class="sigma-edge c-3" stroke-width="1" x1="767.1756429118916" y1="7.874015748031468" x2="773.2395867332937" y2="11.32352629256286"></line><line class="sigma-edge c-3" stroke-width="1" x1="779.0472332931149" y1="15.170576541033142" x2="773.2395867332937" y2="11.32352629256286"></line><line class="sigma-edge c-3" stroke-width="1" x1="768.2617433330977" y1="18.97653142747049" x2="773.2395867332937" y2="11.32352629256286"></line><line class="sigma-edge c-3" stroke-width="1" x1="310.3894292744995" y1="66.72845801072378" x2="598.4652267206588" y2="613.8305402196986"></line><line class="sigma-edge c-3" stroke-width="1" x1="370.16564386107007" y1="418.9377521366305" x2="562.2424240873254" y2="349.9792468665622"></line><line class="sigma-edge c-3" stroke-width="1" x1="418.1884134214902" y1="354.13853650519684" x2="562.2424240873254" y2="349.9792468665622"></line><line class="sigma-edge c-3" stroke-width="1" x1="515.7758136375368" y1="407.0941937920461" x2="562.2424240873254" y2="349.9792468665622"></line><line class="sigma-edge c-3" stroke-width="1" x1="369.81044183073885" y1="366.66103717927297" x2="562.2424240873254" y2="349.9792468665622"></line><line class="sigma-edge c-3" stroke-width="1" x1="409.39336192602127" y1="317.15333564210084" x2="562.2424240873254" y2="349.9792468665622"></line><line class="sigma-edge c-3" stroke-width="1" x1="411.776923410106" y1="408.4492432368833" x2="562.2424240873254" y2="349.9792468665622"></line><line class="sigma-edge c-3" stroke-width="1" x1="129.69847273908692" y1="318.9982521676698" x2="151.95252586513794" y2="345.7347178865002"></line><line class="sigma-edge c-3" stroke-width="1" x1="115.63635932510869" y1="321.3030678653071" x2="151.95252586513794" y2="345.7347178865002"></line><line class="sigma-edge c-3" stroke-width="1" x1="119.89954584342303" y1="334.79187354136945" x2="151.95252586513794" y2="345.7347178865002"></line><line class="sigma-edge c-3" stroke-width="1" x1="122.2598463770396" y1="304.9208346945369" x2="151.95252586513794" y2="345.7347178865002"></line><line class="sigma-edge c-3" stroke-width="1" x1="103.79766352521585" y1="312.50882806421066" x2="151.95252586513794" y2="345.7347178865002"></line><line class="sigma-edge c-3" stroke-width="1" x1="99.42966554201331" y1="331.8262243013677" x2="151.95252586513794" y2="345.7347178865002"></line><line class="sigma-edge c-3" stroke-width="1" x1="205.0125830535315" y1="367.60810540570816" x2="151.95252586513794" y2="345.7347178865002"></line><line class="sigma-edge c-3" stroke-width="1" x1="209.46514968234192" y1="394.331873633228" x2="151.95252586513794" y2="345.7347178865002"></line><line class="sigma-edge c-3" stroke-width="1" x1="219.43205539462417" y1="343.96266331587094" x2="151.95252586513794" y2="345.7347178865002"></line><line class="sigma-edge c-3" stroke-width="1" x1="213.6330973942832" y1="318.3288672536064" x2="151.95252586513794" y2="345.7347178865002"></line><line class="sigma-edge c-3" stroke-width="1" x1="258.2272508714134" y1="397.30942772402636" x2="151.95252586513794" y2="345.7347178865002"></line><line class="sigma-edge c-3" stroke-width="1" x1="233.6228357043443" y1="411.9956845704234" x2="151.95252586513794" y2="345.7347178865002"></line><line class="sigma-edge c-3" stroke-width="1" x1="236.11515661280038" y1="366.7379537953035" x2="151.95252586513794" y2="345.7347178865002"></line><line class="sigma-edge c-3" stroke-width="1" x1="369.81044183073885" y1="366.66103717927297" x2="151.95252586513794" y2="345.7347178865002"></line><line class="sigma-edge c-3" stroke-width="1" x1="370.16564386107007" y1="418.9377521366305" x2="151.95252586513794" y2="345.7347178865002"></line><line class="sigma-edge c-3" stroke-width="1" x1="411.776923410106" y1="408.4492432368833" x2="151.95252586513794" y2="345.7347178865002"></line><line class="sigma-edge c-3" stroke-width="1" x1="261.2093626451672" y1="362.1686860938951" x2="151.95252586513794" y2="345.7347178865002"></line><line class="sigma-edge c-3" stroke-width="1" x1="409.39336192602127" y1="317.15333564210084" x2="151.95252586513794" y2="345.7347178865002"></line><line class="sigma-edge c-3" stroke-width="1" x1="418.1884134214902" y1="354.13853650519684" x2="151.95252586513794" y2="345.7347178865002"></line><line class="sigma-edge c-3" stroke-width="1" x1="536.2103375990966" y1="556.4192200520313" x2="471.76889293446766" y2="636.2748956629976"></line><line class="sigma-edge c-3" stroke-width="1" x1="671.5997204309592" y1="317.4365979242441" x2="471.76889293446766" y2="636.2748956629976"></line><line class="sigma-edge c-3" stroke-width="1" x1="543.5537061009123" y1="574.4912694347186" x2="471.76889293446766" y2="636.2748956629976"></line><line class="sigma-edge c-3" stroke-width="1" x1="519.16489296442" y1="626.9324077586966" x2="471.76889293446766" y2="636.2748956629976"></line><line class="sigma-edge c-3" stroke-width="1" x1="537.4344717928878" y1="615.2394815979437" x2="471.76889293446766" y2="636.2748956629976"></line><line class="sigma-edge c-3" stroke-width="1" x1="670.626053018045" y1="271.86278650108443" x2="471.76889293446766" y2="636.2748956629976"></line><line class="sigma-edge c-3" stroke-width="1" x1="788.5815097156275" y1="606.3700171634523" x2="471.76889293446766" y2="636.2748956629976"></line><line class="sigma-edge c-3" stroke-width="1" x1="558.8295198157622" y1="572.7557563539385" x2="471.76889293446766" y2="636.2748956629976"></line><line class="sigma-edge c-3" stroke-width="1" x1="698.5850295419217" y1="310.1345191338181" x2="471.76889293446766" y2="636.2748956629976"></line><line class="sigma-edge c-3" stroke-width="1" x1="558.8295198157622" y1="572.7557563539385" x2="598.4652267206588" y2="613.8305402196986"></line><line class="sigma-edge c-3" stroke-width="1" x1="788.5815097156275" y1="606.3700171634523" x2="598.4652267206588" y2="613.8305402196986"></line><line class="sigma-edge c-3" stroke-width="1" x1="536.2103375990966" y1="556.4192200520313" x2="598.4652267206588" y2="613.8305402196986"></line><line class="sigma-edge c-3" stroke-width="1" x1="519.16489296442" y1="626.9324077586966" x2="598.4652267206588" y2="613.8305402196986"></line><line class="sigma-edge c-3" stroke-width="1" x1="537.4344717928878" y1="615.2394815979437" x2="598.4652267206588" y2="613.8305402196986"></line><line class="sigma-edge c-3" stroke-width="1" x1="543.5537061009123" y1="574.4912694347186" x2="598.4652267206588" y2="613.8305402196986"></line><line class="sigma-edge c-3" stroke-width="1" x1="213.6330973942832" y1="318.3288672536064" x2="266.361480256833" y2="305.2189894724911"></line><line class="sigma-edge c-3" stroke-width="1" x1="233.6228357043443" y1="411.9956845704234" x2="266.361480256833" y2="305.2189894724911"></line><line class="sigma-edge c-3" stroke-width="1" x1="258.2272508714134" y1="397.30942772402636" x2="266.361480256833" y2="305.2189894724911"></line><line class="sigma-edge c-3" stroke-width="1" x1="209.46514968234192" y1="394.331873633228" x2="266.361480256833" y2="305.2189894724911"></line><line class="sigma-edge c-3" stroke-width="1" x1="261.2093626451672" y1="362.1686860938951" x2="266.361480256833" y2="305.2189894724911"></line><line class="sigma-edge c-3" stroke-width="1" x1="205.0125830535315" y1="367.60810540570816" x2="266.361480256833" y2="305.2189894724911"></line><line class="sigma-edge c-3" stroke-width="1" x1="219.43205539462417" y1="343.96266331587094" x2="266.361480256833" y2="305.2189894724911"></line><line class="sigma-edge c-3" stroke-width="1" x1="236.11515661280038" y1="366.7379537953035" x2="266.361480256833" y2="305.2189894724911"></line><line class="sigma-edge c-3" stroke-width="1" x1="310.3894292744995" y1="66.72845801072378" x2="309.4596009792436" y2="57.08577275483651"></line><line class="sigma-edge c-3" stroke-width="1" x1="187.6406772286992" y1="439.24359395936165" x2="151.95252586513794" y2="345.7347178865002"></line><line class="sigma-edge c-3" stroke-width="1" x1="281.5185655685393" y1="285.79396179938647" x2="266.361480256833" y2="305.2189894724911"></line><line class="sigma-edge c-3" stroke-width="1" x1="256.5073886300129" y1="274.22418453695104" x2="266.361480256833" y2="305.2189894724911"></line><line class="sigma-edge c-3" stroke-width="1" x1="248.81391309963132" y1="263.62658086492274" x2="266.361480256833" y2="305.2189894724911"></line><line class="sigma-edge c-3" stroke-width="1" x1="370.16564386107007" y1="418.9377521366305" x2="266.361480256833" y2="305.2189894724911"></line><line class="sigma-edge c-3" stroke-width="1" x1="370.16564386107007" y1="418.9377521366305" x2="375.9651887202531" y2="324.4281140640546"></line><line class="sigma-edge c-3" stroke-width="1" x1="316.6991373844985" y1="266.0381591425596" x2="266.361480256833" y2="305.2189894724911"></line><line class="sigma-edge c-3" stroke-width="1" x1="316.6991373844985" y1="266.0381591425596" x2="375.9651887202531" y2="324.4281140640546"></line><line class="sigma-edge c-3" stroke-width="1" x1="418.1884134214902" y1="354.13853650519684" x2="266.361480256833" y2="305.2189894724911"></line><line class="sigma-edge c-3" stroke-width="1" x1="418.1884134214902" y1="354.13853650519684" x2="375.9651887202531" y2="324.4281140640546"></line><line class="sigma-edge c-3" stroke-width="1" x1="411.776923410106" y1="408.4492432368833" x2="266.361480256833" y2="305.2189894724911"></line><line class="sigma-edge c-3" stroke-width="1" x1="411.776923410106" y1="408.4492432368833" x2="375.9651887202531" y2="324.4281140640546"></line><line class="sigma-edge c-3" stroke-width="1" x1="369.81044183073885" y1="366.66103717927297" x2="266.361480256833" y2="305.2189894724911"></line><line class="sigma-edge c-3" stroke-width="1" x1="369.81044183073885" y1="366.66103717927297" x2="375.9651887202531" y2="324.4281140640546"></line><line class="sigma-edge c-3" stroke-width="1" x1="409.39336192602127" y1="317.15333564210084" x2="266.361480256833" y2="305.2189894724911"></line><line class="sigma-edge c-3" stroke-width="1" x1="409.39336192602127" y1="317.15333564210084" x2="375.9651887202531" y2="324.4281140640546"></line><line class="sigma-edge c-3" stroke-width="1" x1="403.84945125414293" y1="392.3891879488758" x2="598.4652267206588" y2="613.8305402196986"></line><line class="sigma-edge c-3" stroke-width="1" x1="487.22999923081676" y1="563.6907135887781" x2="598.4652267206588" y2="613.8305402196986"></line><line class="sigma-edge c-3" stroke-width="1" x1="52.43797267019596" y1="812.4636769435847" x2="59.61511912114793" y2="832.1328378949979"></line><line class="sigma-edge c-3" stroke-width="1" x1="40.345662392000406" y1="823.8121550717492" x2="59.61511912114793" y2="832.1328378949979"></line><line class="sigma-edge c-3" stroke-width="1" x1="403.84945125414293" y1="392.3891879488758" x2="266.361480256833" y2="305.2189894724911"></line><line class="sigma-edge c-3" stroke-width="1" x1="539.9402066177345" y1="363.4868167824846" x2="562.2424240873254" y2="349.9792468665622"></line><line class="sigma-edge c-3" stroke-width="1" x1="270.0969815960462" y1="272.4001662833951" x2="266.361480256833" y2="305.2189894724911"></line><line class="sigma-edge c-3" stroke-width="1" x1="267.91126013563564" y1="258.4564916539109" x2="266.361480256833" y2="305.2189894724911"></line><line class="sigma-edge c-3" stroke-width="1" x1="539.9402066177345" y1="363.4868167824846" x2="515.9221510816602" y2="375.5185967629677"></line><line class="sigma-edge c-3" stroke-width="1" x1="663.3651610481728" y1="552.1624508732629" x2="598.4652267206588" y2="613.8305402196986"></line><line class="sigma-edge c-3" stroke-width="1" x1="698.5850295419217" y1="310.1345191338181" x2="706.2016341855332" y2="193.57289029391114"></line><line class="sigma-edge c-3" stroke-width="1" x1="671.5997204309592" y1="317.4365979242441" x2="706.2016341855332" y2="193.57289029391114"></line><line class="sigma-edge c-3" stroke-width="1" x1="670.626053018045" y1="271.86278650108443" x2="706.2016341855332" y2="193.57289029391114"></line><line class="sigma-edge c-3" stroke-width="1" x1="511.14408357716303" y1="560.7593022271317" x2="471.76889293446766" y2="636.2748956629976"></line><line class="sigma-edge c-3" stroke-width="1" x1="543.2120170670361" y1="707.4160661545714" x2="471.76889293446766" y2="636.2748956629976"></line><line class="sigma-edge c-3" stroke-width="1" x1="444.8532137676953" y1="601.7523488506584" x2="471.76889293446766" y2="636.2748956629976"></line><line class="sigma-edge c-3" stroke-width="1" x1="464.4290489201297" y1="595.6735620734776" x2="471.76889293446766" y2="636.2748956629976"></line><line class="sigma-edge c-3" stroke-width="1" x1="498.8072074980708" y1="755.9302080505456" x2="471.76889293446766" y2="636.2748956629976"></line><line class="sigma-edge c-3" stroke-width="1" x1="463.68081437609" y1="750.517281223604" x2="471.76889293446766" y2="636.2748956629976"></line><line class="sigma-edge c-3" stroke-width="1" x1="499.87586030103995" y1="718.7620444164994" x2="471.76889293446766" y2="636.2748956629976"></line><line class="sigma-edge c-3" stroke-width="1" x1="580.2316368201434" y1="770.9490233218214" x2="471.76889293446766" y2="636.2748956629976"></line><line class="sigma-edge c-3" stroke-width="1" x1="630.1868448998094" y1="724.0970943129417" x2="471.76889293446766" y2="636.2748956629976"></line><line class="sigma-edge c-3" stroke-width="1" x1="553.2876593390594" y1="739.9616570126434" x2="471.76889293446766" y2="636.2748956629976"></line><line class="sigma-edge c-3" stroke-width="1" x1="490.6248347283556" y1="807.6579584796189" x2="471.76889293446766" y2="636.2748956629976"></line><line class="sigma-edge c-3" stroke-width="1" x1="622.5750265854555" y1="784.8823783815369" x2="471.76889293446766" y2="636.2748956629976"></line><line class="sigma-edge c-3" stroke-width="1" x1="608.6735905495149" y1="750.4801947934013" x2="471.76889293446766" y2="636.2748956629976"></line><line class="sigma-edge c-3" stroke-width="1" x1="527.5607775564333" y1="769.5528022995172" x2="471.76889293446766" y2="636.2748956629976"></line><line class="sigma-edge c-3" stroke-width="1" x1="586.6893019522391" y1="712.3522654416093" x2="471.76889293446766" y2="636.2748956629976"></line><line class="sigma-edge c-3" stroke-width="1" x1="492.04001624526245" y1="833.4705711932218" x2="471.76889293446766" y2="636.2748956629976"></line><line class="sigma-edge c-3" stroke-width="1" x1="552.6804433545403" y1="790.6356071214555" x2="471.76889293446766" y2="636.2748956629976"></line><line class="sigma-edge c-3" stroke-width="1" x1="707.0204623226571" y1="173.50661644498967" x2="706.2016341855332" y2="193.57289029391114"></line><line class="sigma-edge c-3" stroke-width="1" x1="704.3912280084962" y1="162.51348515648107" x2="706.2016341855332" y2="193.57289029391114"></line><line class="sigma-edge c-3" stroke-width="1" x1="43.38492049819541" y1="839.5788114248865" x2="59.61511912114793" y2="832.1328378949979"></line><line class="sigma-edge c-3" stroke-width="1" x1="74.38393252569432" y1="820.9055423069528" x2="59.61511912114793" y2="832.1328378949979"></line><line class="sigma-edge c-3" stroke-width="1" x1="58.942289269466016" y1="851.0493561922052" x2="59.61511912114793" y2="832.1328378949979"></line><line class="sigma-edge c-3" stroke-width="1" x1="74.17619973868204" y1="846.4874661448116" x2="59.61511912114793" y2="832.1328378949979"></line><line class="sigma-edge" stroke-width="1" x1="627.2036965961527" y1="568.9285221183179" x2="477.2953572385185" y2="537.5627008071439"></line><line class="sigma-edge" stroke-width="1" x1="932.9208290480099" y1="992.1259842519685" x2="935.3834716664517" y2="987.7102144347114"></line><line class="sigma-edge" stroke-width="1" x1="949.2789781416243" y1="388.87806484746864" x2="948.4735334347174" y2="386.0642367520693"></line><line class="sigma-edge" stroke-width="1" x1="788.5815097156275" y1="606.3700171634523" x2="968.9309753772923" y2="604.5927037278744"></line><line class="sigma-edge" stroke-width="1" x1="934.7812782790356" y1="982.543966481575" x2="935.3834716664517" y2="987.7102144347114"></line><line class="sigma-edge" stroke-width="1" x1="619.7083354650078" y1="388.26576529349916" x2="641.522564564316" y2="416.21962776175195"></line><line class="sigma-edge" stroke-width="1" x1="646.8614709617207" y1="444.8797100633384" x2="641.522564564316" y2="416.21962776175195"></line><line class="sigma-edge" stroke-width="1" x1="612.5299390809378" y1="422.36631105834505" x2="641.522564564316" y2="416.21962776175195"></line><line class="sigma-edge" stroke-width="1" x1="584.5471299908376" y1="398.96667136482176" x2="641.522564564316" y2="416.21962776175195"></line><line class="sigma-edge" stroke-width="1" x1="614.1283901359167" y1="458.1908956703766" x2="641.522564564316" y2="416.21962776175195"></line><line class="sigma-edge" stroke-width="1" x1="576.2719782678829" y1="427.5697064140312" x2="641.522564564316" y2="416.21962776175195"></line><line class="sigma-edge" stroke-width="1" x1="545.2999846117502" y1="444.67376833902597" x2="641.522564564316" y2="416.21962776175195"></line><line class="sigma-edge" stroke-width="1" x1="577.3527207440761" y1="461.56804728183295" x2="641.522564564316" y2="416.21962776175195"></line><line class="sigma-edge" stroke-width="1" x1="971.8523434501183" y1="612.3418165251032" x2="968.9309753772923" y2="604.5927037278744"></line><line class="sigma-edge" stroke-width="1" x1="978.1157583054829" y1="604.0588146124427" x2="968.9309753772923" y2="604.5927037278744"></line><line class="sigma-edge c-2" stroke-width="1" x1="133.87248719957756" y1="821.7657706678458" x2="59.61511912114793" y2="832.1328378949979"></line><line class="sigma-edge c-2" stroke-width="1" x1="90.56824945735633" y1="832.5305605159786" x2="59.61511912114793" y2="832.1328378949979"></line><line class="sigma-edge c-2" stroke-width="1" x1="91.29769213344116" y1="815.3917824607797" x2="59.61511912114793" y2="832.1328378949979"></line><line class="sigma-edge c-2" stroke-width="1" x1="630.1868448998094" y1="724.0970943129417" x2="587.4376003267049" y2="836.8463966561259"></line><line class="sigma-edge c-2" stroke-width="1" x1="463.68081437609" y1="750.517281223604" x2="587.4376003267049" y2="836.8463966561259"></line><line class="sigma-edge c-2" stroke-width="1" x1="539.7088051276819" y1="888.1116108591131" x2="587.4376003267049" y2="836.8463966561259"></line><line class="sigma-edge c-2" stroke-width="1" x1="608.6735905495149" y1="750.4801947934013" x2="587.4376003267049" y2="836.8463966561259"></line><line class="sigma-edge c-2" stroke-width="1" x1="622.5750265854555" y1="784.8823783815369" x2="587.4376003267049" y2="836.8463966561259"></line><line class="sigma-edge c-2" stroke-width="1" x1="498.8072074980708" y1="755.9302080505456" x2="587.4376003267049" y2="836.8463966561259"></line><line class="sigma-edge c-2" stroke-width="1" x1="568.993632963616" y1="889.1280198874354" x2="587.4376003267049" y2="836.8463966561259"></line><line class="sigma-edge c-2" stroke-width="1" x1="543.2120170670361" y1="707.4160661545714" x2="587.4376003267049" y2="836.8463966561259"></line><line class="sigma-edge c-2" stroke-width="1" x1="600.3893691899096" y1="876.6816431888758" x2="587.4376003267049" y2="836.8463966561259"></line><line class="sigma-edge c-2" stroke-width="1" x1="586.6893019522391" y1="712.3522654416093" x2="587.4376003267049" y2="836.8463966561259"></line><line class="sigma-edge c-2" stroke-width="1" x1="490.6248347283556" y1="807.6579584796189" x2="587.4376003267049" y2="836.8463966561259"></line><line class="sigma-edge c-2" stroke-width="1" x1="499.87586030103995" y1="718.7620444164994" x2="587.4376003267049" y2="836.8463966561259"></line><line class="sigma-edge c-2" stroke-width="1" x1="565.7828748877502" y1="869.1316203484394" x2="587.4376003267049" y2="836.8463966561259"></line><line class="sigma-edge c-2" stroke-width="1" x1="553.2876593390594" y1="739.9616570126434" x2="587.4376003267049" y2="836.8463966561259"></line><line class="sigma-edge c-2" stroke-width="1" x1="492.04001624526245" y1="833.4705711932218" x2="587.4376003267049" y2="836.8463966561259"></line><line class="sigma-edge c-2" stroke-width="1" x1="580.2316368201434" y1="770.9490233218214" x2="587.4376003267049" y2="836.8463966561259"></line><line class="sigma-edge c-2" stroke-width="1" x1="527.5607775564333" y1="769.5528022995172" x2="587.4376003267049" y2="836.8463966561259"></line><line class="sigma-edge c-2" stroke-width="1" x1="552.6804433545403" y1="790.6356071214555" x2="587.4376003267049" y2="836.8463966561259"></line><line class="sigma-edge c-2" stroke-width="1" x1="608.6735905495149" y1="750.4801947934013" x2="477.2953572385185" y2="537.5627008071439"></line><line class="sigma-edge c-2" stroke-width="1" x1="463.68081437609" y1="750.517281223604" x2="477.2953572385185" y2="537.5627008071439"></line><line class="sigma-edge c-2" stroke-width="1" x1="630.1868448998094" y1="724.0970943129417" x2="477.2953572385185" y2="537.5627008071439"></line><line class="sigma-edge c-2" stroke-width="1" x1="586.6893019522391" y1="712.3522654416093" x2="477.2953572385185" y2="537.5627008071439"></line><line class="sigma-edge c-2" stroke-width="1" x1="490.6248347283556" y1="807.6579584796189" x2="477.2953572385185" y2="537.5627008071439"></line><line class="sigma-edge c-2" stroke-width="1" x1="539.7088051276819" y1="888.1116108591131" x2="477.2953572385185" y2="537.5627008071439"></line><line class="sigma-edge c-2" stroke-width="1" x1="568.993632963616" y1="889.1280198874354" x2="477.2953572385185" y2="537.5627008071439"></line><line class="sigma-edge c-2" stroke-width="1" x1="543.2120170670361" y1="707.4160661545714" x2="477.2953572385185" y2="537.5627008071439"></line><line class="sigma-edge c-2" stroke-width="1" x1="580.2316368201434" y1="770.9490233218214" x2="477.2953572385185" y2="537.5627008071439"></line><line class="sigma-edge c-2" stroke-width="1" x1="600.3893691899096" y1="876.6816431888758" x2="477.2953572385185" y2="537.5627008071439"></line><line class="sigma-edge c-2" stroke-width="1" x1="565.7828748877502" y1="869.1316203484394" x2="477.2953572385185" y2="537.5627008071439"></line><line class="sigma-edge c-2" stroke-width="1" x1="622.5750265854555" y1="784.8823783815369" x2="477.2953572385185" y2="537.5627008071439"></line><line class="sigma-edge c-2" stroke-width="1" x1="499.87586030103995" y1="718.7620444164994" x2="477.2953572385185" y2="537.5627008071439"></line><line class="sigma-edge c-2" stroke-width="1" x1="498.8072074980708" y1="755.9302080505456" x2="477.2953572385185" y2="537.5627008071439"></line><line class="sigma-edge c-2" stroke-width="1" x1="492.04001624526245" y1="833.4705711932218" x2="477.2953572385185" y2="537.5627008071439"></line><line class="sigma-edge c-2" stroke-width="1" x1="527.5607775564333" y1="769.5528022995172" x2="477.2953572385185" y2="537.5627008071439"></line><line class="sigma-edge c-2" stroke-width="1" x1="552.6804433545403" y1="790.6356071214555" x2="477.2953572385185" y2="537.5627008071439"></line><line class="sigma-edge c-2" stroke-width="1" x1="553.2876593390594" y1="739.9616570126434" x2="477.2953572385185" y2="537.5627008071439"></line><line class="sigma-edge c-2" stroke-width="1" x1="627.2036965961527" y1="568.9285221183179" x2="477.2953572385185" y2="537.5627008071439"></line><line class="sigma-edge c-2" stroke-width="1" x1="495.1487542465118" y1="635.7670722260066" x2="521.8773926402666" y2="587.5376178407921"></line><line class="sigma-edge c-2" stroke-width="1" x1="436.806346323541" y1="640.5853967227623" x2="521.8773926402666" y2="587.5376178407921"></line><line class="sigma-edge c-2" stroke-width="1" x1="608.6735905495149" y1="750.4801947934013" x2="532.7382329891449" y2="845.1300387784324"></line><line class="sigma-edge c-2" stroke-width="1" x1="630.1868448998094" y1="724.0970943129417" x2="532.7382329891449" y2="845.1300387784324"></line><line class="sigma-edge c-2" stroke-width="1" x1="568.993632963616" y1="889.1280198874354" x2="532.7382329891449" y2="845.1300387784324"></line><line class="sigma-edge c-2" stroke-width="1" x1="463.68081437609" y1="750.517281223604" x2="532.7382329891449" y2="845.1300387784324"></line><line class="sigma-edge c-2" stroke-width="1" x1="580.2316368201434" y1="770.9490233218214" x2="532.7382329891449" y2="845.1300387784324"></line><line class="sigma-edge c-2" stroke-width="1" x1="600.3893691899096" y1="876.6816431888758" x2="532.7382329891449" y2="845.1300387784324"></line><line class="sigma-edge c-2" stroke-width="1" x1="539.7088051276819" y1="888.1116108591131" x2="532.7382329891449" y2="845.1300387784324"></line><line class="sigma-edge c-2" stroke-width="1" x1="622.5750265854555" y1="784.8823783815369" x2="532.7382329891449" y2="845.1300387784324"></line><line class="sigma-edge c-2" stroke-width="1" x1="498.8072074980708" y1="755.9302080505456" x2="532.7382329891449" y2="845.1300387784324"></line><line class="sigma-edge c-2" stroke-width="1" x1="499.87586030103995" y1="718.7620444164994" x2="532.7382329891449" y2="845.1300387784324"></line><line class="sigma-edge c-2" stroke-width="1" x1="565.7828748877502" y1="869.1316203484394" x2="532.7382329891449" y2="845.1300387784324"></line><line class="sigma-edge c-2" stroke-width="1" x1="543.2120170670361" y1="707.4160661545714" x2="532.7382329891449" y2="845.1300387784324"></line><line class="sigma-edge c-2" stroke-width="1" x1="553.2876593390594" y1="739.9616570126434" x2="532.7382329891449" y2="845.1300387784324"></line><line class="sigma-edge c-2" stroke-width="1" x1="492.04001624526245" y1="833.4705711932218" x2="532.7382329891449" y2="845.1300387784324"></line><line class="sigma-edge c-2" stroke-width="1" x1="490.6248347283556" y1="807.6579584796189" x2="532.7382329891449" y2="845.1300387784324"></line><line class="sigma-edge c-2" stroke-width="1" x1="586.6893019522391" y1="712.3522654416093" x2="532.7382329891449" y2="845.1300387784324"></line><line class="sigma-edge c-2" stroke-width="1" x1="527.5607775564333" y1="769.5528022995172" x2="532.7382329891449" y2="845.1300387784324"></line><line class="sigma-edge c-2" stroke-width="1" x1="552.6804433545403" y1="790.6356071214555" x2="532.7382329891449" y2="845.1300387784324"></line><line class="sigma-edge c-2" stroke-width="1" x1="114.98249187341531" y1="355.3467035655573" x2="151.95252586513794" y2="345.7347178865002"></line><line class="sigma-edge c-2" stroke-width="1" x1="108.96726495744986" y1="344.2153327227917" x2="151.95252586513794" y2="345.7347178865002"></line><line class="sigma-edge c-2" stroke-width="1" x1="426.8896513392026" y1="566.1067218885183" x2="477.2953572385185" y2="537.5627008071439"></line><line class="sigma-edge c-2" stroke-width="1" x1="487.22999923081676" y1="563.6907135887781" x2="477.2953572385185" y2="537.5627008071439"></line><line class="sigma-edge c-2" stroke-width="1" x1="40.345662392000406" y1="823.8121550717492" x2="59.61511912114793" y2="832.1328378949979"></line><line class="sigma-edge c-2" stroke-width="1" x1="52.43797267019596" y1="812.4636769435847" x2="59.61511912114793" y2="832.1328378949979"></line><line class="sigma-edge c-2" stroke-width="1" x1="64.6902134151756" y1="799.5942740999442" x2="59.61511912114793" y2="832.1328378949979"></line><line class="sigma-edge c-2" stroke-width="1" x1="79.7291038317768" y1="802.4870156557457" x2="59.61511912114793" y2="832.1328378949979"></line><line class="sigma-edge c-2" stroke-width="1" x1="43.38492049819541" y1="839.5788114248865" x2="59.61511912114793" y2="832.1328378949979"></line><line class="sigma-edge c-2" stroke-width="1" x1="74.17619973868204" y1="846.4874661448116" x2="59.61511912114793" y2="832.1328378949979"></line><line class="sigma-edge c-2" stroke-width="1" x1="74.38393252569432" y1="820.9055423069528" x2="59.61511912114793" y2="832.1328378949979"></line><line class="sigma-edge c-2" stroke-width="1" x1="58.942289269466016" y1="851.0493561922052" x2="59.61511912114793" y2="832.1328378949979"></line><line class="sigma-edge c-3" stroke-width="1" x1="441.1920224766685" y1="567.202288266632" x2="477.2953572385185" y2="537.5627008071439"></line><line class="sigma-edge c-3" stroke-width="1" x1="243.78486817084905" y1="288.4461979315397" x2="266.361480256833" y2="305.2189894724911"></line><line class="sigma-edge c-3" stroke-width="1" x1="310.3894292744995" y1="66.72845801072378" x2="302.0176058950118" y2="60.481658119979215"></line><line class="sigma-edge c-3" stroke-width="1" x1="576.2719782678829" y1="427.5697064140312" x2="521.8773926402666" y2="587.5376178407921"></line><line class="sigma-edge c-3" stroke-width="1" x1="619.7083354650078" y1="388.26576529349916" x2="521.8773926402666" y2="587.5376178407921"></line><line class="sigma-edge c-3" stroke-width="1" x1="646.8614709617207" y1="444.8797100633384" x2="521.8773926402666" y2="587.5376178407921"></line><line class="sigma-edge c-3" stroke-width="1" x1="545.2999846117502" y1="444.67376833902597" x2="521.8773926402666" y2="587.5376178407921"></line><line class="sigma-edge c-3" stroke-width="1" x1="612.5299390809378" y1="422.36631105834505" x2="521.8773926402666" y2="587.5376178407921"></line><line class="sigma-edge c-3" stroke-width="1" x1="614.1283901359167" y1="458.1908956703766" x2="521.8773926402666" y2="587.5376178407921"></line><line class="sigma-edge c-3" stroke-width="1" x1="577.3527207440761" y1="461.56804728183295" x2="521.8773926402666" y2="587.5376178407921"></line><line class="sigma-edge c-3" stroke-width="1" x1="584.5471299908376" y1="398.96667136482176" x2="521.8773926402666" y2="587.5376178407921"></line><line class="sigma-edge c-3" stroke-width="1" x1="21.884241694517073" y1="638.1057047117263" x2="22.349826537964532" y2="641.3406840525292"></line><line class="sigma-edge c-3" stroke-width="1" x1="418.1884134214902" y1="354.13853650519684" x2="521.8773926402666" y2="587.5376178407921"></line><line class="sigma-edge c-3" stroke-width="1" x1="515.7758136375368" y1="407.0941937920461" x2="521.8773926402666" y2="587.5376178407921"></line><line class="sigma-edge c-3" stroke-width="1" x1="411.776923410106" y1="408.4492432368833" x2="521.8773926402666" y2="587.5376178407921"></line><line class="sigma-edge c-3" stroke-width="1" x1="369.81044183073885" y1="366.66103717927297" x2="521.8773926402666" y2="587.5376178407921"></line><line class="sigma-edge c-3" stroke-width="1" x1="409.39336192602127" y1="317.15333564210084" x2="521.8773926402666" y2="587.5376178407921"></line><line class="sigma-edge c-3" stroke-width="1" x1="370.16564386107007" y1="418.9377521366305" x2="521.8773926402666" y2="587.5376178407921"></line><line class="sigma-edge c-3" stroke-width="1" x1="614.1283901359167" y1="458.1908956703766" x2="562.2424240873254" y2="349.9792468665622"></line><line class="sigma-edge c-3" stroke-width="1" x1="646.8614709617207" y1="444.8797100633384" x2="562.2424240873254" y2="349.9792468665622"></line><line class="sigma-edge c-3" stroke-width="1" x1="545.2999846117502" y1="444.67376833902597" x2="562.2424240873254" y2="349.9792468665622"></line><line class="sigma-edge c-3" stroke-width="1" x1="619.7083354650078" y1="388.26576529349916" x2="562.2424240873254" y2="349.9792468665622"></line><line class="sigma-edge c-3" stroke-width="1" x1="584.5471299908376" y1="398.96667136482176" x2="562.2424240873254" y2="349.9792468665622"></line><line class="sigma-edge c-3" stroke-width="1" x1="612.5299390809378" y1="422.36631105834505" x2="562.2424240873254" y2="349.9792468665622"></line><line class="sigma-edge c-3" stroke-width="1" x1="576.2719782678829" y1="427.5697064140312" x2="562.2424240873254" y2="349.9792468665622"></line><line class="sigma-edge c-3" stroke-width="1" x1="577.3527207440761" y1="461.56804728183295" x2="562.2424240873254" y2="349.9792468665622"></line><line class="sigma-edge c-3" stroke-width="1" x1="556.1069749457095" y1="286.47256878096834" x2="562.2424240873254" y2="349.9792468665622"></line><line class="sigma-edge c-3" stroke-width="1" x1="971.6079662824209" y1="596.3722099034396" x2="968.9309753772923" y2="604.5927037278744"></line><line class="sigma-edge c-3" stroke-width="1" x1="544.9104703930154" y1="530.4994360531637" x2="477.2953572385185" y2="537.5627008071439"></line><line class="sigma-edge c-3" stroke-width="1" x1="187.6406772286992" y1="439.24359395936165" x2="477.2953572385185" y2="537.5627008071439"></line><line class="sigma-edge c-3" stroke-width="1" x1="586.6893019522391" y1="712.3522654416093" x2="477.2953572385185" y2="537.5627008071439"></line><line class="sigma-edge c-3" stroke-width="1" x1="622.5750265854555" y1="784.8823783815369" x2="477.2953572385185" y2="537.5627008071439"></line><line class="sigma-edge c-3" stroke-width="1" x1="552.6804433545403" y1="790.6356071214555" x2="477.2953572385185" y2="537.5627008071439"></line><line class="sigma-edge c-3" stroke-width="1" x1="464.4290489201297" y1="595.6735620734776" x2="477.2953572385185" y2="537.5627008071439"></line><line class="sigma-edge c-3" stroke-width="1" x1="444.8532137676953" y1="601.7523488506584" x2="477.2953572385185" y2="537.5627008071439"></line><line class="sigma-edge c-3" stroke-width="1" x1="499.87586030103995" y1="718.7620444164994" x2="477.2953572385185" y2="537.5627008071439"></line><line class="sigma-edge c-3" stroke-width="1" x1="543.2120170670361" y1="707.4160661545714" x2="477.2953572385185" y2="537.5627008071439"></line><line class="sigma-edge c-3" stroke-width="1" x1="498.8072074980708" y1="755.9302080505456" x2="477.2953572385185" y2="537.5627008071439"></line><line class="sigma-edge c-3" stroke-width="1" x1="608.6735905495149" y1="750.4801947934013" x2="477.2953572385185" y2="537.5627008071439"></line><line class="sigma-edge c-3" stroke-width="1" x1="527.5607775564333" y1="769.5528022995172" x2="477.2953572385185" y2="537.5627008071439"></line><line class="sigma-edge c-3" stroke-width="1" x1="630.1868448998094" y1="724.0970943129417" x2="477.2953572385185" y2="537.5627008071439"></line><line class="sigma-edge c-3" stroke-width="1" x1="553.2876593390594" y1="739.9616570126434" x2="477.2953572385185" y2="537.5627008071439"></line><line class="sigma-edge c-3" stroke-width="1" x1="463.68081437609" y1="750.517281223604" x2="477.2953572385185" y2="537.5627008071439"></line><line class="sigma-edge c-3" stroke-width="1" x1="580.2316368201434" y1="770.9490233218214" x2="477.2953572385185" y2="537.5627008071439"></line><line class="sigma-edge c-3" stroke-width="1" x1="556.1069749457095" y1="286.47256878096834" x2="556.9295681252747" y2="254.4209453939794"></line><line class="sigma-edge c-3" stroke-width="1" x1="576.2719782678829" y1="427.5697064140312" x2="515.9221510816602" y2="375.5185967629677"></line><line class="sigma-edge c-3" stroke-width="1" x1="614.1283901359167" y1="458.1908956703766" x2="515.9221510816602" y2="375.5185967629677"></line><line class="sigma-edge c-3" stroke-width="1" x1="577.3527207440761" y1="461.56804728183295" x2="515.9221510816602" y2="375.5185967629677"></line><line class="sigma-edge c-3" stroke-width="1" x1="584.5471299908376" y1="398.96667136482176" x2="515.9221510816602" y2="375.5185967629677"></line><line class="sigma-edge c-3" stroke-width="1" x1="612.5299390809378" y1="422.36631105834505" x2="515.9221510816602" y2="375.5185967629677"></line><line class="sigma-edge c-3" stroke-width="1" x1="545.2999846117502" y1="444.67376833902597" x2="515.9221510816602" y2="375.5185967629677"></line><line class="sigma-edge c-3" stroke-width="1" x1="646.8614709617207" y1="444.8797100633384" x2="515.9221510816602" y2="375.5185967629677"></line><line class="sigma-edge c-3" stroke-width="1" x1="619.7083354650078" y1="388.26576529349916" x2="515.9221510816602" y2="375.5185967629677"></line><line class="sigma-edge c-3" stroke-width="1" x1="698.5850295419217" y1="310.1345191338181" x2="477.2953572385185" y2="537.5627008071439"></line><line class="sigma-edge c-3" stroke-width="1" x1="556.1069749457095" y1="286.47256878096834" x2="477.2953572385185" y2="537.5627008071439"></line><line class="sigma-edge c-3" stroke-width="1" x1="670.626053018045" y1="271.86278650108443" x2="477.2953572385185" y2="537.5627008071439"></line><line class="sigma-edge c-3" stroke-width="1" x1="671.5997204309592" y1="317.4365979242441" x2="477.2953572385185" y2="537.5627008071439"></line><line class="sigma-edge c-3" stroke-width="1" x1="418.1884134214902" y1="354.13853650519684" x2="515.9221510816602" y2="375.5185967629677"></line><line class="sigma-edge c-3" stroke-width="1" x1="370.16564386107007" y1="418.9377521366305" x2="515.9221510816602" y2="375.5185967629677"></line><line class="sigma-edge c-3" stroke-width="1" x1="515.7758136375368" y1="407.0941937920461" x2="515.9221510816602" y2="375.5185967629677"></line><line class="sigma-edge c-3" stroke-width="1" x1="409.39336192602127" y1="317.15333564210084" x2="515.9221510816602" y2="375.5185967629677"></line><line class="sigma-edge c-3" stroke-width="1" x1="411.776923410106" y1="408.4492432368833" x2="515.9221510816602" y2="375.5185967629677"></line><line class="sigma-edge c-3" stroke-width="1" x1="369.81044183073885" y1="366.66103717927297" x2="515.9221510816602" y2="375.5185967629677"></line><line class="sigma-edge c-3" stroke-width="1" x1="511.14408357716303" y1="560.7593022271317" x2="477.2953572385185" y2="537.5627008071439"></line><line class="sigma-edge c-3" stroke-width="1" x1="612.5299390809378" y1="422.36631105834505" x2="477.2953572385185" y2="537.5627008071439"></line><line class="sigma-edge c-3" stroke-width="1" x1="576.2719782678829" y1="427.5697064140312" x2="477.2953572385185" y2="537.5627008071439"></line><line class="sigma-edge c-3" stroke-width="1" x1="545.2999846117502" y1="444.67376833902597" x2="477.2953572385185" y2="537.5627008071439"></line><line class="sigma-edge c-3" stroke-width="1" x1="619.7083354650078" y1="388.26576529349916" x2="477.2953572385185" y2="537.5627008071439"></line><line class="sigma-edge c-3" stroke-width="1" x1="614.1283901359167" y1="458.1908956703766" x2="477.2953572385185" y2="537.5627008071439"></line><line class="sigma-edge c-3" stroke-width="1" x1="584.5471299908376" y1="398.96667136482176" x2="477.2953572385185" y2="537.5627008071439"></line><line class="sigma-edge c-3" stroke-width="1" x1="646.8614709617207" y1="444.8797100633384" x2="477.2953572385185" y2="537.5627008071439"></line><line class="sigma-edge c-3" stroke-width="1" x1="577.3527207440761" y1="461.56804728183295" x2="477.2953572385185" y2="537.5627008071439"></line><line class="sigma-edge c-3" stroke-width="1" x1="442.6639711542323" y1="50.316836168588736" x2="440.112266990346" y2="48.056164450345875"></line><line class="sigma-edge c-3" stroke-width="1" x1="205.0125830535315" y1="367.60810540570816" x2="477.2953572385185" y2="537.5627008071439"></line><line class="sigma-edge c-3" stroke-width="1" x1="209.46514968234192" y1="394.331873633228" x2="477.2953572385185" y2="537.5627008071439"></line><line class="sigma-edge c-3" stroke-width="1" x1="219.43205539462417" y1="343.96266331587094" x2="477.2953572385185" y2="537.5627008071439"></line><line class="sigma-edge c-3" stroke-width="1" x1="411.776923410106" y1="408.4492432368833" x2="477.2953572385185" y2="537.5627008071439"></line><line class="sigma-edge c-3" stroke-width="1" x1="213.6330973942832" y1="318.3288672536064" x2="477.2953572385185" y2="537.5627008071439"></line><line class="sigma-edge c-3" stroke-width="1" x1="369.81044183073885" y1="366.66103717927297" x2="477.2953572385185" y2="537.5627008071439"></line><line class="sigma-edge c-3" stroke-width="1" x1="233.6228357043443" y1="411.9956845704234" x2="477.2953572385185" y2="537.5627008071439"></line><line class="sigma-edge c-3" stroke-width="1" x1="418.1884134214902" y1="354.13853650519684" x2="477.2953572385185" y2="537.5627008071439"></line><line class="sigma-edge c-3" stroke-width="1" x1="409.39336192602127" y1="317.15333564210084" x2="477.2953572385185" y2="537.5627008071439"></line><line class="sigma-edge c-3" stroke-width="1" x1="236.11515661280038" y1="366.7379537953035" x2="477.2953572385185" y2="537.5627008071439"></line><line class="sigma-edge c-3" stroke-width="1" x1="370.16564386107007" y1="418.9377521366305" x2="477.2953572385185" y2="537.5627008071439"></line><line class="sigma-edge c-3" stroke-width="1" x1="258.2272508714134" y1="397.30942772402636" x2="477.2953572385185" y2="537.5627008071439"></line><line class="sigma-edge c-3" stroke-width="1" x1="261.2093626451672" y1="362.1686860938951" x2="477.2953572385185" y2="537.5627008071439"></line><line class="sigma-edge c-3" stroke-width="1" x1="539.9402066177345" y1="363.4868167824846" x2="477.2953572385185" y2="537.5627008071439"></line><line class="sigma-edge c-3" stroke-width="1" x1="495.1487542465118" y1="635.7670722260066" x2="521.8773926402666" y2="587.5376178407921"></line><line class="sigma-edge c-3" stroke-width="1" x1="436.806346323541" y1="640.5853967227623" x2="521.8773926402666" y2="587.5376178407921"></line><line class="sigma-edge c-3" stroke-width="1" x1="556.1069749457095" y1="286.47256878096834" x2="515.9221510816602" y2="375.5185967629677"></line><line class="sigma-edge c-3" stroke-width="1" x1="767.1756429118916" y1="7.874015748031468" x2="773.2395867332937" y2="11.32352629256286"></line><line class="sigma-edge c-3" stroke-width="1" x1="779.0472332931149" y1="15.170576541033142" x2="773.2395867332937" y2="11.32352629256286"></line><line class="sigma-edge c-3" stroke-width="1" x1="768.2617433330977" y1="18.97653142747049" x2="773.2395867332937" y2="11.32352629256286"></line><line class="sigma-edge c-3" stroke-width="1" x1="310.3894292744995" y1="66.72845801072378" x2="477.2953572385185" y2="537.5627008071439"></line><line class="sigma-edge c-3" stroke-width="1" x1="370.16564386107007" y1="418.9377521366305" x2="562.2424240873254" y2="349.9792468665622"></line><line class="sigma-edge c-3" stroke-width="1" x1="418.1884134214902" y1="354.13853650519684" x2="562.2424240873254" y2="349.9792468665622"></line><line class="sigma-edge c-3" stroke-width="1" x1="515.7758136375368" y1="407.0941937920461" x2="562.2424240873254" y2="349.9792468665622"></line><line class="sigma-edge c-3" stroke-width="1" x1="369.81044183073885" y1="366.66103717927297" x2="562.2424240873254" y2="349.9792468665622"></line><line class="sigma-edge c-3" stroke-width="1" x1="409.39336192602127" y1="317.15333564210084" x2="562.2424240873254" y2="349.9792468665622"></line><line class="sigma-edge c-3" stroke-width="1" x1="411.776923410106" y1="408.4492432368833" x2="562.2424240873254" y2="349.9792468665622"></line><line class="sigma-edge c-3" stroke-width="1" x1="129.69847273908692" y1="318.9982521676698" x2="151.95252586513794" y2="345.7347178865002"></line><line class="sigma-edge c-3" stroke-width="1" x1="115.63635932510869" y1="321.3030678653071" x2="151.95252586513794" y2="345.7347178865002"></line><line class="sigma-edge c-3" stroke-width="1" x1="119.89954584342303" y1="334.79187354136945" x2="151.95252586513794" y2="345.7347178865002"></line><line class="sigma-edge c-3" stroke-width="1" x1="122.2598463770396" y1="304.9208346945369" x2="151.95252586513794" y2="345.7347178865002"></line><line class="sigma-edge c-3" stroke-width="1" x1="103.79766352521585" y1="312.50882806421066" x2="151.95252586513794" y2="345.7347178865002"></line><line class="sigma-edge c-3" stroke-width="1" x1="99.42966554201331" y1="331.8262243013677" x2="151.95252586513794" y2="345.7347178865002"></line><line class="sigma-edge c-3" stroke-width="1" x1="205.0125830535315" y1="367.60810540570816" x2="151.95252586513794" y2="345.7347178865002"></line><line class="sigma-edge c-3" stroke-width="1" x1="209.46514968234192" y1="394.331873633228" x2="151.95252586513794" y2="345.7347178865002"></line><line class="sigma-edge c-3" stroke-width="1" x1="219.43205539462417" y1="343.96266331587094" x2="151.95252586513794" y2="345.7347178865002"></line><line class="sigma-edge c-3" stroke-width="1" x1="213.6330973942832" y1="318.3288672536064" x2="151.95252586513794" y2="345.7347178865002"></line><line class="sigma-edge c-3" stroke-width="1" x1="258.2272508714134" y1="397.30942772402636" x2="151.95252586513794" y2="345.7347178865002"></line><line class="sigma-edge c-3" stroke-width="1" x1="233.6228357043443" y1="411.9956845704234" x2="151.95252586513794" y2="345.7347178865002"></line><line class="sigma-edge c-3" stroke-width="1" x1="236.11515661280038" y1="366.7379537953035" x2="151.95252586513794" y2="345.7347178865002"></line><line class="sigma-edge c-3" stroke-width="1" x1="369.81044183073885" y1="366.66103717927297" x2="151.95252586513794" y2="345.7347178865002"></line><line class="sigma-edge c-3" stroke-width="1" x1="370.16564386107007" y1="418.9377521366305" x2="151.95252586513794" y2="345.7347178865002"></line><line class="sigma-edge c-3" stroke-width="1" x1="411.776923410106" y1="408.4492432368833" x2="151.95252586513794" y2="345.7347178865002"></line><line class="sigma-edge c-3" stroke-width="1" x1="261.2093626451672" y1="362.1686860938951" x2="151.95252586513794" y2="345.7347178865002"></line><line class="sigma-edge c-3" stroke-width="1" x1="409.39336192602127" y1="317.15333564210084" x2="151.95252586513794" y2="345.7347178865002"></line><line class="sigma-edge c-3" stroke-width="1" x1="418.1884134214902" y1="354.13853650519684" x2="151.95252586513794" y2="345.7347178865002"></line><line class="sigma-edge c-3" stroke-width="1" x1="536.2103375990966" y1="556.4192200520313" x2="521.8773926402666" y2="587.5376178407921"></line><line class="sigma-edge c-3" stroke-width="1" x1="671.5997204309592" y1="317.4365979242441" x2="521.8773926402666" y2="587.5376178407921"></line><line class="sigma-edge c-3" stroke-width="1" x1="543.5537061009123" y1="574.4912694347186" x2="521.8773926402666" y2="587.5376178407921"></line><line class="sigma-edge c-3" stroke-width="1" x1="519.16489296442" y1="626.9324077586966" x2="521.8773926402666" y2="587.5376178407921"></line><line class="sigma-edge c-3" stroke-width="1" x1="537.4344717928878" y1="615.2394815979437" x2="521.8773926402666" y2="587.5376178407921"></line><line class="sigma-edge c-3" stroke-width="1" x1="670.626053018045" y1="271.86278650108443" x2="521.8773926402666" y2="587.5376178407921"></line><line class="sigma-edge c-3" stroke-width="1" x1="788.5815097156275" y1="606.3700171634523" x2="521.8773926402666" y2="587.5376178407921"></line><line class="sigma-edge c-3" stroke-width="1" x1="558.8295198157622" y1="572.7557563539385" x2="521.8773926402666" y2="587.5376178407921"></line><line class="sigma-edge c-3" stroke-width="1" x1="698.5850295419217" y1="310.1345191338181" x2="521.8773926402666" y2="587.5376178407921"></line><line class="sigma-edge c-3" stroke-width="1" x1="558.8295198157622" y1="572.7557563539385" x2="477.2953572385185" y2="537.5627008071439"></line><line class="sigma-edge c-3" stroke-width="1" x1="788.5815097156275" y1="606.3700171634523" x2="477.2953572385185" y2="537.5627008071439"></line><line class="sigma-edge c-3" stroke-width="1" x1="536.2103375990966" y1="556.4192200520313" x2="477.2953572385185" y2="537.5627008071439"></line><line class="sigma-edge c-3" stroke-width="1" x1="519.16489296442" y1="626.9324077586966" x2="477.2953572385185" y2="537.5627008071439"></line><line class="sigma-edge c-3" stroke-width="1" x1="537.4344717928878" y1="615.2394815979437" x2="477.2953572385185" y2="537.5627008071439"></line><line class="sigma-edge c-3" stroke-width="1" x1="543.5537061009123" y1="574.4912694347186" x2="477.2953572385185" y2="537.5627008071439"></line><line class="sigma-edge c-3" stroke-width="1" x1="213.6330973942832" y1="318.3288672536064" x2="266.361480256833" y2="305.2189894724911"></line><line class="sigma-edge c-3" stroke-width="1" x1="233.6228357043443" y1="411.9956845704234" x2="266.361480256833" y2="305.2189894724911"></line><line class="sigma-edge c-3" stroke-width="1" x1="258.2272508714134" y1="397.30942772402636" x2="266.361480256833" y2="305.2189894724911"></line><line class="sigma-edge c-3" stroke-width="1" x1="209.46514968234192" y1="394.331873633228" x2="266.361480256833" y2="305.2189894724911"></line><line class="sigma-edge c-3" stroke-width="1" x1="261.2093626451672" y1="362.1686860938951" x2="266.361480256833" y2="305.2189894724911"></line><line class="sigma-edge c-3" stroke-width="1" x1="205.0125830535315" y1="367.60810540570816" x2="266.361480256833" y2="305.2189894724911"></line><line class="sigma-edge c-3" stroke-width="1" x1="219.43205539462417" y1="343.96266331587094" x2="266.361480256833" y2="305.2189894724911"></line><line class="sigma-edge c-3" stroke-width="1" x1="236.11515661280038" y1="366.7379537953035" x2="266.361480256833" y2="305.2189894724911"></line><line class="sigma-edge c-3" stroke-width="1" x1="310.3894292744995" y1="66.72845801072378" x2="309.4596009792436" y2="57.08577275483651"></line><line class="sigma-edge c-3" stroke-width="1" x1="187.6406772286992" y1="439.24359395936165" x2="151.95252586513794" y2="345.7347178865002"></line><line class="sigma-edge c-3" stroke-width="1" x1="281.5185655685393" y1="285.79396179938647" x2="266.361480256833" y2="305.2189894724911"></line><line class="sigma-edge c-3" stroke-width="1" x1="256.5073886300129" y1="274.22418453695104" x2="266.361480256833" y2="305.2189894724911"></line><line class="sigma-edge c-3" stroke-width="1" x1="248.81391309963132" y1="263.62658086492274" x2="266.361480256833" y2="305.2189894724911"></line><line class="sigma-edge c-3" stroke-width="1" x1="370.16564386107007" y1="418.9377521366305" x2="375.9651887202531" y2="324.4281140640546"></line><line class="sigma-edge c-3" stroke-width="1" x1="370.16564386107007" y1="418.9377521366305" x2="266.361480256833" y2="305.2189894724911"></line><line class="sigma-edge c-3" stroke-width="1" x1="316.6991373844985" y1="266.0381591425596" x2="375.9651887202531" y2="324.4281140640546"></line><line class="sigma-edge c-3" stroke-width="1" x1="316.6991373844985" y1="266.0381591425596" x2="266.361480256833" y2="305.2189894724911"></line><line class="sigma-edge c-3" stroke-width="1" x1="418.1884134214902" y1="354.13853650519684" x2="375.9651887202531" y2="324.4281140640546"></line><line class="sigma-edge c-3" stroke-width="1" x1="418.1884134214902" y1="354.13853650519684" x2="266.361480256833" y2="305.2189894724911"></line><line class="sigma-edge c-3" stroke-width="1" x1="411.776923410106" y1="408.4492432368833" x2="375.9651887202531" y2="324.4281140640546"></line><line class="sigma-edge c-3" stroke-width="1" x1="411.776923410106" y1="408.4492432368833" x2="266.361480256833" y2="305.2189894724911"></line><line class="sigma-edge c-3" stroke-width="1" x1="369.81044183073885" y1="366.66103717927297" x2="375.9651887202531" y2="324.4281140640546"></line><line class="sigma-edge c-3" stroke-width="1" x1="369.81044183073885" y1="366.66103717927297" x2="266.361480256833" y2="305.2189894724911"></line><line class="sigma-edge c-3" stroke-width="1" x1="409.39336192602127" y1="317.15333564210084" x2="375.9651887202531" y2="324.4281140640546"></line><line class="sigma-edge c-3" stroke-width="1" x1="409.39336192602127" y1="317.15333564210084" x2="266.361480256833" y2="305.2189894724911"></line><line class="sigma-edge c-3" stroke-width="1" x1="403.84945125414293" y1="392.3891879488758" x2="477.2953572385185" y2="537.5627008071439"></line><line class="sigma-edge c-3" stroke-width="1" x1="487.22999923081676" y1="563.6907135887781" x2="477.2953572385185" y2="537.5627008071439"></line><line class="sigma-edge c-3" stroke-width="1" x1="52.43797267019596" y1="812.4636769435847" x2="59.61511912114793" y2="832.1328378949979"></line><line class="sigma-edge c-3" stroke-width="1" x1="40.345662392000406" y1="823.8121550717492" x2="59.61511912114793" y2="832.1328378949979"></line><line class="sigma-edge c-3" stroke-width="1" x1="403.84945125414293" y1="392.3891879488758" x2="266.361480256833" y2="305.2189894724911"></line><line class="sigma-edge c-3" stroke-width="1" x1="539.9402066177345" y1="363.4868167824846" x2="562.2424240873254" y2="349.9792468665622"></line><line class="sigma-edge c-3" stroke-width="1" x1="270.0969815960462" y1="272.4001662833951" x2="266.361480256833" y2="305.2189894724911"></line><line class="sigma-edge c-3" stroke-width="1" x1="267.91126013563564" y1="258.4564916539109" x2="266.361480256833" y2="305.2189894724911"></line><line class="sigma-edge c-3" stroke-width="1" x1="539.9402066177345" y1="363.4868167824846" x2="515.9221510816602" y2="375.5185967629677"></line><line class="sigma-edge c-3" stroke-width="1" x1="663.3651610481728" y1="552.1624508732629" x2="477.2953572385185" y2="537.5627008071439"></line><line class="sigma-edge c-3" stroke-width="1" x1="698.5850295419217" y1="310.1345191338181" x2="706.2016341855332" y2="193.57289029391114"></line><line class="sigma-edge c-3" stroke-width="1" x1="671.5997204309592" y1="317.4365979242441" x2="706.2016341855332" y2="193.57289029391114"></line><line class="sigma-edge c-3" stroke-width="1" x1="670.626053018045" y1="271.86278650108443" x2="706.2016341855332" y2="193.57289029391114"></line><line class="sigma-edge c-3" stroke-width="1" x1="511.14408357716303" y1="560.7593022271317" x2="521.8773926402666" y2="587.5376178407921"></line><line class="sigma-edge c-3" stroke-width="1" x1="543.2120170670361" y1="707.4160661545714" x2="521.8773926402666" y2="587.5376178407921"></line><line class="sigma-edge c-3" stroke-width="1" x1="444.8532137676953" y1="601.7523488506584" x2="521.8773926402666" y2="587.5376178407921"></line><line class="sigma-edge c-3" stroke-width="1" x1="464.4290489201297" y1="595.6735620734776" x2="521.8773926402666" y2="587.5376178407921"></line><line class="sigma-edge c-3" stroke-width="1" x1="498.8072074980708" y1="755.9302080505456" x2="521.8773926402666" y2="587.5376178407921"></line><line class="sigma-edge c-3" stroke-width="1" x1="463.68081437609" y1="750.517281223604" x2="521.8773926402666" y2="587.5376178407921"></line><line class="sigma-edge c-3" stroke-width="1" x1="499.87586030103995" y1="718.7620444164994" x2="521.8773926402666" y2="587.5376178407921"></line><line class="sigma-edge c-3" stroke-width="1" x1="580.2316368201434" y1="770.9490233218214" x2="521.8773926402666" y2="587.5376178407921"></line><line class="sigma-edge c-3" stroke-width="1" x1="630.1868448998094" y1="724.0970943129417" x2="521.8773926402666" y2="587.5376178407921"></line><line class="sigma-edge c-3" stroke-width="1" x1="553.2876593390594" y1="739.9616570126434" x2="521.8773926402666" y2="587.5376178407921"></line><line class="sigma-edge c-3" stroke-width="1" x1="490.6248347283556" y1="807.6579584796189" x2="521.8773926402666" y2="587.5376178407921"></line><line class="sigma-edge c-3" stroke-width="1" x1="622.5750265854555" y1="784.8823783815369" x2="521.8773926402666" y2="587.5376178407921"></line><line class="sigma-edge c-3" stroke-width="1" x1="608.6735905495149" y1="750.4801947934013" x2="521.8773926402666" y2="587.5376178407921"></line><line class="sigma-edge c-3" stroke-width="1" x1="527.5607775564333" y1="769.5528022995172" x2="521.8773926402666" y2="587.5376178407921"></line><line class="sigma-edge c-3" stroke-width="1" x1="586.6893019522391" y1="712.3522654416093" x2="521.8773926402666" y2="587.5376178407921"></line><line class="sigma-edge c-3" stroke-width="1" x1="492.04001624526245" y1="833.4705711932218" x2="521.8773926402666" y2="587.5376178407921"></line><line class="sigma-edge c-3" stroke-width="1" x1="552.6804433545403" y1="790.6356071214555" x2="521.8773926402666" y2="587.5376178407921"></line><line class="sigma-edge c-3" stroke-width="1" x1="707.0204623226571" y1="173.50661644498967" x2="706.2016341855332" y2="193.57289029391114"></line><line class="sigma-edge c-3" stroke-width="1" x1="704.3912280084962" y1="162.51348515648107" x2="706.2016341855332" y2="193.57289029391114"></line><line class="sigma-edge c-3" stroke-width="1" x1="43.38492049819541" y1="839.5788114248865" x2="59.61511912114793" y2="832.1328378949979"></line><line class="sigma-edge c-3" stroke-width="1" x1="74.38393252569432" y1="820.9055423069528" x2="59.61511912114793" y2="832.1328378949979"></line><line class="sigma-edge c-3" stroke-width="1" x1="58.942289269466016" y1="851.0493561922052" x2="59.61511912114793" y2="832.1328378949979"></line><line class="sigma-edge c-3" stroke-width="1" x1="74.17619973868204" y1="846.4874661448116" x2="59.61511912114793" y2="832.1328378949979"></line></g><g id="sigma-group-nodes" class="sigma-group"><circle class="sigma-node" cx="310.3894292744995" cy="66.72845801072378" r="2.966830204321557"></circle><circle class="sigma-node c-0" cx="302.0176058950118" cy="60.481658119979215" r="2.1355499479153375"></circle><circle class="sigma-node c-0" cx="309.4596009792436" cy="57.08577275483651" r="2.1355499479153375"></circle><circle class="sigma-node" cx="442.6639711542323" cy="50.316836168588736" r="2.1355499479153375"></circle><circle class="sigma-node c-0" cx="440.112266990346" cy="48.056164450345875" r="2.1355499479153375"></circle><circle class="sigma-node" cx="122.2598463770396" cy="304.9208346945369" r="2.1355499479153375"></circle><circle class="sigma-node" cx="103.79766352521585" cy="312.50882806421066" r="2.1355499479153375"></circle><circle class="sigma-node" cx="114.98249187341531" cy="355.3467035655573" r="2.1355499479153375"></circle><circle class="sigma-node" cx="108.96726495744986" cy="344.2153327227917" r="2.1355499479153375"></circle><circle class="sigma-node" cx="129.69847273908692" cy="318.9982521676698" r="2.1355499479153375"></circle><circle class="sigma-node" cx="115.63635932510869" cy="321.3030678653071" r="2.1355499479153375"></circle><circle class="sigma-node" cx="119.89954584342303" cy="334.79187354136945" r="2.1355499479153375"></circle><circle class="sigma-node" cx="99.42966554201331" cy="331.8262243013677" r="2.1355499479153375"></circle><circle class="sigma-node" cx="243.78486817084905" cy="288.4461979315397" r="2.1355499479153375"></circle><circle class="sigma-node c-0" cx="266.361480256833" cy="305.2189894724911" r="6.203743591725196"></circle><circle class="sigma-node" cx="213.6330973942832" cy="318.3288672536064" r="2.966830204321557"></circle><circle class="sigma-node" cx="256.5073886300129" cy="274.22418453695104" r="2.1355499479153375"></circle><circle class="sigma-node" cx="248.81391309963132" cy="263.62658086492274" r="2.1355499479153375"></circle><circle class="sigma-node c-0" cx="151.95252586513794" cy="345.7347178865002" r="6.326201371768774"></circle><circle class="sigma-node" cx="205.0125830535315" cy="367.60810540570816" r="2.966830204321557"></circle><circle class="sigma-node" cx="219.43205539462417" cy="343.96266331587094" r="2.966830204321557"></circle><circle class="sigma-node" cx="236.11515661280038" cy="366.7379537953035" r="2.966830204321557"></circle><circle class="sigma-node" cx="261.2093626451672" cy="362.1686860938951" r="2.966830204321557"></circle><circle class="sigma-node" cx="187.6406772286992" cy="439.24359395936165" r="2.6059101370939324"></circle><circle class="sigma-node" cx="209.46514968234192" cy="394.331873633228" r="2.966830204321557"></circle><circle class="sigma-node" cx="233.6228357043443" cy="411.9956845704234" r="2.966830204321557"></circle><circle class="sigma-node" cx="258.2272508714134" cy="397.30942772402636" r="2.966830204321557"></circle><circle class="sigma-node" cx="281.5185655685393" cy="285.79396179938647" r="2.1355499479153375"></circle><circle class="sigma-node" cx="316.6991373844985" cy="266.0381591425596" r="2.6059101370939324"></circle><circle class="sigma-node" cx="270.0969815960462" cy="272.4001662833951" r="2.1355499479153375"></circle><circle class="sigma-node" cx="267.91126013563564" cy="258.4564916539109" r="2.1355499479153375"></circle><circle class="sigma-node" cx="369.81044183073885" cy="366.66103717927297" r="4.0043827634763325"></circle><circle class="sigma-node c-0" cx="375.9651887202531" cy="324.4281140640546" r="3.7815179498365916"></circle><circle class="sigma-node" cx="409.39336192602127" cy="317.15333564210084" r="4.0043827634763325"></circle><circle class="sigma-node" cx="418.1884134214902" cy="354.13853650519684" r="4.0043827634763325"></circle><circle class="sigma-node" cx="370.16564386107007" cy="418.9377521366305" r="4.0043827634763325"></circle><circle class="sigma-node" cx="411.776923410106" cy="408.4492432368833" r="4.0043827634763325"></circle><circle class="sigma-node" cx="403.84945125414293" cy="392.3891879488758" r="2.6059101370939324"></circle><circle class="sigma-node c-0" cx="556.9295681252747" cy="254.4209453939794" r="2.1355499479153375"></circle><circle class="sigma-node c-0" cx="706.2016341855332" cy="193.57289029391114" r="3.5391668753850407"></circle><circle class="sigma-node" cx="707.0204623226571" cy="173.50661644498967" r="2.1355499479153375"></circle><circle class="sigma-node" cx="704.3912280084962" cy="162.51348515648107" r="2.1355499479153375"></circle><circle class="sigma-node" cx="767.1756429118916" cy="7.874015748031468" r="2.1355499479153375"></circle><circle class="sigma-node c-0" cx="773.2395867332937" cy="11.32352629256286" r="2.966830204321557"></circle><circle class="sigma-node" cx="779.0472332931149" cy="15.170576541033142" r="2.1355499479153375"></circle><circle class="sigma-node" cx="768.2617433330977" cy="18.97653142747049" r="2.1355499479153375"></circle><circle class="sigma-node" cx="556.1069749457095" cy="286.47256878096834" r="3.2710998958306754"></circle><circle class="sigma-node c-0" cx="562.2424240873254" cy="349.9792468665622" r="5.542199791661351"></circle><circle class="sigma-node c-0" cx="515.9221510816602" cy="375.5185967629677" r="5.542199791661351"></circle><circle class="sigma-node" cx="539.9402066177345" cy="363.4868167824846" r="2.966830204321557"></circle><circle class="sigma-node" cx="670.626053018045" cy="271.86278650108443" r="2.966830204321557"></circle><circle class="sigma-node" cx="671.5997204309592" cy="317.4365979242441" r="2.966830204321557"></circle><circle class="sigma-node" cx="698.5850295419217" cy="310.1345191338181" r="2.966830204321557"></circle><circle class="sigma-node" cx="515.7758136375368" cy="407.0941937920461" r="2.966830204321557"></circle><circle class="sigma-node" cx="619.7083354650078" cy="388.26576529349916" r="3.5391668753850407"></circle><circle class="sigma-node" cx="612.5299390809378" cy="422.36631105834505" r="3.5391668753850407"></circle><circle class="sigma-node" cx="584.5471299908376" cy="398.96667136482176" r="3.5391668753850407"></circle><circle class="sigma-node" cx="576.2719782678829" cy="427.5697064140312" r="3.5391668753850407"></circle><circle class="sigma-node" cx="545.2999846117502" cy="444.67376833902597" r="3.5391668753850407"></circle><circle class="sigma-node" cx="614.1283901359167" cy="458.1908956703766" r="3.5391668753850407"></circle><circle class="sigma-node" cx="577.3527207440761" cy="461.56804728183295" r="3.5391668753850407"></circle><circle class="sigma-node c-0" cx="641.522564564316" cy="416.21962776175195" r="4.211820274187865"></circle><circle class="sigma-node" cx="646.8614709617207" cy="444.8797100633384" r="3.5391668753850407"></circle><circle class="sigma-node" cx="949.2789781416243" cy="388.87806484746864" r="1.8029550685469662"></circle><circle class="sigma-node c-1" cx="948.4735334347174" cy="386.0642367520693" r="1.8029550685469662"></circle><circle class="sigma-node" cx="21.884241694517073" cy="638.1057047117263" r="2.1355499479153375"></circle><circle class="sigma-node c-0" cx="22.349826537964532" cy="641.3406840525292" r="2.1355499479153375"></circle><circle class="sigma-node" cx="487.22999923081676" cy="563.6907135887781" r="2.6059101370939324"></circle><circle class="sigma-node c-1" cx="477.2953572385185" cy="537.5627008071439" r="8"></circle><circle class="sigma-node" cx="426.8896513392026" cy="566.1067218885183" r="2.1355499479153375"></circle><circle class="sigma-node" cx="441.1920224766685" cy="567.202288266632" r="2.1355499479153375"></circle><circle class="sigma-node" cx="464.4290489201297" cy="595.6735620734776" r="2.6059101370939324"></circle><circle class="sigma-node" cx="444.8532137676953" cy="601.7523488506584" r="2.6059101370939324"></circle><circle class="sigma-node" cx="436.806346323541" cy="640.5853967227623" r="2.6059101370939324"></circle><circle class="sigma-node" cx="495.1487542465118" cy="635.7670722260066" r="2.6059101370939324"></circle><circle class="sigma-node c-0" cx="471.76889293446766" cy="636.2748956629976" r="6.326201371768774"></circle><circle class="sigma-node" cx="499.87586030103995" cy="718.7620444164994" r="3.5391668753850407"></circle><circle class="sigma-node" cx="64.6902134151756" cy="799.5942740999442" r="2.1355499479153375"></circle><circle class="sigma-node" cx="79.7291038317768" cy="802.4870156557457" r="2.1355499479153375"></circle><circle class="sigma-node c-0" cx="59.61511912114793" cy="832.1328378949979" r="5.6819923784195705"></circle><circle class="sigma-node" cx="40.345662392000406" cy="823.8121550717492" r="2.6059101370939324"></circle><circle class="sigma-node" cx="52.43797267019596" cy="812.4636769435847" r="2.6059101370939324"></circle><circle class="sigma-node" cx="43.38492049819541" cy="839.5788114248865" r="2.6059101370939324"></circle><circle class="sigma-node" cx="74.17619973868204" cy="846.4874661448116" r="2.6059101370939324"></circle><circle class="sigma-node" cx="74.38393252569432" cy="820.9055423069528" r="2.6059101370939324"></circle><circle class="sigma-node" cx="58.942289269466016" cy="851.0493561922052" r="2.6059101370939324"></circle><circle class="sigma-node" cx="133.87248719957756" cy="821.7657706678458" r="2.1355499479153375"></circle><circle class="sigma-node" cx="90.56824945735633" cy="832.5305605159786" r="2.1355499479153375"></circle><circle class="sigma-node" cx="91.29769213344116" cy="815.3917824607797" r="2.1355499479153375"></circle><circle class="sigma-node" cx="463.68081437609" cy="750.517281223604" r="3.5391668753850407"></circle><circle class="sigma-node" cx="498.8072074980708" cy="755.9302080505456" r="3.5391668753850407"></circle><circle class="sigma-node" cx="490.6248347283556" cy="807.6579584796189" r="3.2710998958306754"></circle><circle class="sigma-node" cx="492.04001624526245" cy="833.4705711932218" r="3.2710998958306754"></circle><circle class="sigma-node" cx="544.9104703930154" cy="530.4994360531637" r="2.1355499479153375"></circle><circle class="sigma-node" cx="511.14408357716303" cy="560.7593022271317" r="2.6059101370939324"></circle><circle class="sigma-node" cx="536.2103375990966" cy="556.4192200520313" r="2.6059101370939324"></circle><circle class="sigma-node" cx="543.5537061009123" cy="574.4912694347186" r="2.6059101370939324"></circle><circle class="sigma-node" cx="537.4344717928878" cy="615.2394815979437" r="2.6059101370939324"></circle><circle class="sigma-node" cx="558.8295198157622" cy="572.7557563539385" r="2.6059101370939324"></circle><circle class="sigma-node c-1" cx="521.8773926402666" cy="587.5376178407921" r="6.326201371768774"></circle><circle class="sigma-node c-0" cx="598.4652267206588" cy="613.8305402196986" r="8"></circle><circle class="sigma-node" cx="663.3651610481728" cy="552.1624508732629" r="2.1355499479153375"></circle><circle class="sigma-node" cx="627.2036965961527" cy="568.9285221183179" r="2.6059101370939324"></circle><circle class="sigma-node" cx="519.16489296442" cy="626.9324077586966" r="2.6059101370939324"></circle><circle class="sigma-node" cx="543.2120170670361" cy="707.4160661545714" r="3.5391668753850407"></circle><circle class="sigma-node" cx="553.2876593390594" cy="739.9616570126434" r="3.5391668753850407"></circle><circle class="sigma-node" cx="586.6893019522391" cy="712.3522654416093" r="3.5391668753850407"></circle><circle class="sigma-node" cx="630.1868448998094" cy="724.0970943129417" r="3.5391668753850407"></circle><circle class="sigma-node" cx="788.5815097156275" cy="606.3700171634523" r="2.966830204321557"></circle><circle class="sigma-node c-0" cx="968.9309753772923" cy="604.5927037278744" r="3.2710998958306754"></circle><circle class="sigma-node" cx="971.8523434501183" cy="612.3418165251032" r="2.1355499479153375"></circle><circle class="sigma-node" cx="978.1157583054829" cy="604.0588146124427" r="2.1355499479153375"></circle><circle class="sigma-node" cx="971.6079662824209" cy="596.3722099034396" r="2.1355499479153375"></circle><circle class="sigma-node" cx="527.5607775564333" cy="769.5528022995172" r="3.5391668753850407"></circle><circle class="sigma-node" cx="552.6804433545403" cy="790.6356071214555" r="3.5391668753850407"></circle><circle class="sigma-node" cx="608.6735905495149" cy="750.4801947934013" r="3.5391668753850407"></circle><circle class="sigma-node" cx="622.5750265854555" cy="784.8823783815369" r="3.5391668753850407"></circle><circle class="sigma-node" cx="580.2316368201434" cy="770.9490233218214" r="3.5391668753850407"></circle><circle class="sigma-node c-0" cx="532.7382329891449" cy="845.1300387784324" r="5.817730411281796"></circle><circle class="sigma-node c-0" cx="587.4376003267049" cy="836.8463966561259" r="5.817730411281796"></circle><circle class="sigma-node" cx="565.7828748877502" cy="869.1316203484394" r="2.966830204321557"></circle><circle class="sigma-node" cx="539.7088051276819" cy="888.1116108591131" r="2.966830204321557"></circle><circle class="sigma-node" cx="568.993632963616" cy="889.1280198874354" r="2.966830204321557"></circle><circle class="sigma-node" cx="600.3893691899096" cy="876.6816431888758" r="2.966830204321557"></circle><circle class="sigma-node" cx="932.9208290480099" cy="992.1259842519685" r="2.1355499479153375"></circle><circle class="sigma-node c-0" cx="935.3834716664517" cy="987.7102144347114" r="2.6059101370939324"></circle><circle class="sigma-node" cx="934.7812782790356" cy="982.543966481575" r="2.1355499479153375"></circle></g></svg>